<?xml version="1.0" encoding="UTF-8" standalone="no"?>
<!DOCTYPE svg PUBLIC "-//W3C//DTD SVG 1.1//EN" "http://www.w3.org/Graphics/SVG/1.1/DTD/svg11.dtd">
<svg width="100%" height="100%" viewBox="0 0 1411 1410" version="1.1" xmlns="http://www.w3.org/2000/svg" xmlns:xlink="http://www.w3.org/1999/xlink" xml:space="preserve" xmlns:serif="http://www.serif.com/" style="fill-rule:evenodd;clip-rule:evenodd;stroke-linejoin:round;stroke-miterlimit:2;">
    <g transform="matrix(1,0,0,1,-3091,-1099)">
        <g id="Logo-ridotto-nero" serif:id="Logo ridotto nero" transform="matrix(1,0,0,1,1557.49,-0.0145199)">
            <rect x="1534.38" y="1099.02" width="1409.72" height="1409.72" style="fill:none;"/>
            <g id="Aquila" transform="matrix(1.68611,0,0,1.65917,1147.74,-134.688)">
                <path d="M591.488,1502.1C557.679,1484.29 533.229,1444.44 528.701,1400.37C525.079,1363.55 520.853,1340.91 513.91,1323.1C506.061,1302.27 478.29,1259.4 474.97,1262.73C467.423,1270.27 462.292,1305.29 463.801,1339.4C465.31,1379.55 474.97,1410.34 496.1,1444.75L508.476,1464.67L497.609,1452.6C481.611,1434.48 455.953,1394.64 446.595,1373.51C432.408,1340.61 426.371,1311.02 426.069,1271.78L425.767,1235.86L420.333,1246.12C413.391,1260.31 405.844,1283.86 402.825,1301.97L400.109,1316.76L399.807,1301.66C399.203,1273.29 405.542,1221.97 413.089,1195.41C420.031,1171.26 445.388,1113 449.01,1113C449.916,1113 446.595,1122.06 441.464,1133.23C431.502,1155.26 420.635,1191.79 420.635,1202.96C420.635,1208.69 422.748,1207.49 437.539,1192.69C455.047,1175.19 461.99,1172.47 450.821,1187.56C442.067,1199.94 437.841,1231.03 441.765,1258.5C443.577,1270.57 445.991,1281.44 447.501,1282.95C451.425,1286.87 462.896,1268.76 470.442,1246.73L476.781,1227.11L480.705,1240.09C484.328,1252.16 491.27,1263.63 515.117,1298.35C527.192,1315.85 542.586,1349.36 550.435,1375.02C554.057,1386.79 557.378,1396.75 557.981,1396.75C558.283,1396.75 570.659,1384.98 585.451,1370.19C618.051,1338.19 641.295,1322.49 708.006,1287.78C736.079,1272.99 763.548,1257.9 768.679,1254.27C776.83,1248.54 775.924,1250.35 762.944,1265.44C743.323,1288.38 732.456,1306.19 738.192,1306.19C746.644,1306.19 775.924,1286.27 791.923,1270.27C823.316,1237.97 837.805,1199.34 838.409,1147.11C838.711,1130.21 839.616,1118.44 840.824,1121.45C842.031,1124.17 842.937,1140.17 842.937,1157.07C843.541,1238.28 808.525,1294.12 729.739,1336.68C679.631,1363.85 650.35,1389.2 635.257,1419.39C624.39,1440.82 623.787,1440.22 631.937,1416.07C640.087,1392.83 658.501,1362.04 676.612,1341.81C701.365,1314.04 701.667,1313.74 687.781,1319.78C648.237,1336.08 603.864,1371.39 587.262,1399.47C580.319,1411.24 579.111,1416.98 579.111,1436.3C579.111,1456.52 580.319,1460.75 588.167,1473.73C593.299,1481.88 603.26,1493.04 610.203,1498.48L623.485,1508.44L613.222,1508.44C607.788,1508.14 597.827,1505.42 591.488,1502.1ZM585.149,1334.87C589.978,1326.72 602.657,1306.8 613.825,1291.1C637.37,1257.9 642.502,1244.92 639.483,1225.9C637.069,1209.9 629.824,1191.49 626.202,1191.49C624.692,1191.49 621.976,1196.01 619.863,1201.75C616.542,1212.01 596.317,1238.28 593.601,1235.56C592.695,1234.95 595.11,1230.12 598.732,1225.3C614.127,1204.77 607.486,1174.88 585.451,1163.41C575.791,1158.28 572.471,1157.98 562.509,1161C544.096,1166.43 529.305,1188.77 529.305,1211.41C529.305,1221.07 537.757,1242.8 545.303,1253.07C558.585,1270.88 556.774,1271.48 540.473,1254.58C520.853,1234.05 511.797,1216.54 507.269,1190.28C503.647,1169.45 507.571,1137.76 516.023,1120.55C518.438,1115.72 519.343,1114.21 518.438,1117.53C514.815,1128.4 513.306,1170.36 516.325,1170.36C518.136,1170.36 521.456,1167.94 524.173,1164.92C541.379,1145.91 580.319,1139.87 605.373,1151.94C622.579,1160.09 649.143,1187.86 662.123,1210.81C667.556,1220.46 673.895,1228.92 676.008,1229.82C682.046,1231.94 716.156,1222.28 736.079,1212.62C766.264,1198.13 787.998,1173.07 797.96,1141.08C805.204,1119.04 806.11,1131.72 799.167,1155.57C791.923,1180.62 777.131,1205.67 762.34,1218.96C754.492,1225.9 725.212,1242.5 692.913,1258.5C643.709,1282.65 634.956,1288.38 617.146,1305.89C605.977,1316.76 592.393,1331.25 586.96,1337.89L576.998,1349.96L585.149,1334.87ZM699.252,1185.75C669.669,1164.32 665.443,1118.44 687.781,1066.52C689.894,1061.69 689.29,1061.38 684.159,1064.1C678.121,1067.42 656.689,1088.55 648.841,1099.42C640.993,1109.68 643.408,1100.93 653.067,1084.33C666.651,1060.78 687.177,1043.58 724.91,1023.95C766.264,1003.13 775.32,994.674 779.848,973.242C784.678,949.999 776.528,914.077 762.34,897.173C758.416,892.645 759.322,892.947 765.359,898.079C769.585,902.003 777.735,913.474 783.169,923.737C791.621,939.736 793.432,946.376 794.337,968.11C796.149,1007.96 783.772,1048.4 761.737,1073.76L752.681,1084.33L761.435,1064.7C766.264,1053.84 771.094,1039.05 772.302,1032.11C774.415,1019.73 774.113,1019.12 768.981,1021.84C759.925,1026.67 734.871,1052.63 721.589,1070.44C698.648,1101.53 692.913,1129.61 704.685,1152.55C715.552,1174.28 740.606,1178.81 756.303,1161.9C766.868,1150.74 770.491,1142.89 775.622,1121.15L779.848,1102.44L778.037,1120.55C772.302,1178.2 733.362,1210.5 699.252,1185.75ZM868.595,1183.34C860.143,1143.19 853.502,1122.96 842.031,1100.02C826.636,1069.84 828.448,1068.33 846.559,1096.4C853.502,1107.27 859.841,1115.72 860.143,1115.12C862.256,1113 855.615,1066.21 850.181,1045.09C847.163,1033.61 838.409,1011.58 830.862,996.485L816.977,968.714L830.561,977.468C838.107,982.298 844.748,985.618 845.352,985.014C847.163,983.203 829.051,941.547 821.505,930.982C818.184,925.548 811.543,917.398 807.317,912.87L799.469,904.116L811.242,906.531C827.24,909.248 824.222,905.324 794.036,885.401C735.475,846.763 671.481,831.67 626.503,846.159C610.203,851.592 588.469,867.289 591.186,871.817C593.903,875.741 632.239,875.138 663.33,870.308C691.403,866.082 702.27,867.289 718.269,875.439C736.079,884.797 743.021,912.568 731.852,930.982C726.117,940.339 699.553,958.451 696.535,955.13C695.629,954.225 697.742,951.81 701.365,949.999C717.967,941.245 726.117,905.625 713.741,894.457C695.629,877.854 636.163,882.684 591.79,903.814C578.206,910.455 557.679,922.228 545.907,930.076L524.777,944.263L541.379,929.17C550.435,920.718 566.433,908.946 576.998,902.909C587.262,896.871 595.11,890.834 593.903,889.929C592.997,889.023 583.338,887.514 572.471,886.608L552.85,885.099L559.792,877.552C563.717,873.326 570.358,866.384 574.282,861.856L581.225,853.706L563.717,858.233C553.755,860.95 533.531,868.798 518.438,876.043C484.629,892.344 469.235,908.342 461.084,934.906C454.443,956.942 452.029,956.338 456.858,934C463.499,901.097 489.459,875.439 538.662,851.894C574.584,834.99 603.562,828.651 645.521,828.349C677.518,828.349 687.177,829.557 727.023,839.518C752.077,845.555 785.885,852.498 802.488,854.611L832.674,858.535L812.449,860.95C800.978,862.158 791.923,863.969 791.923,865.176C791.923,866.082 801.28,873.025 812.449,880.571C834.183,895.362 864.671,924.039 876.443,940.943L883.99,951.508L870.406,940.641C862.86,934.604 852.294,927.359 847.163,924.643C835.39,918.907 835.088,920.115 841.729,942.452C849.88,969.016 865.274,995.58 885.499,1017.31C903.007,1036.33 903.912,1037.84 894.555,1033.01C888.819,1029.99 876.443,1022.45 867.086,1016.11L849.88,1004.63L855.917,1023.35C867.689,1061.38 870.708,1081.91 872.519,1136.55C874.028,1188.17 872.821,1202.65 868.595,1183.34ZM409.466,1147.72C403.731,1137.15 397.09,1111.49 394.977,1091.57C389.242,1038.75 417.315,985.618 465.914,956.338C484.629,944.867 483.724,946.376 458.066,967.507C435.728,985.92 422.446,1005.24 414.598,1030.9C406.448,1057.16 406.75,1103.95 415.202,1103.95C416.711,1103.95 423.956,1098.21 431.2,1091.27C459.575,1063.8 509.382,1041.76 560.396,1034.82C588.167,1030.9 617.75,1030.6 615.637,1033.92C612.316,1039.65 549.529,1068.33 519.343,1077.99C474.97,1092.17 461.688,1094.29 493.383,1081.91C523.871,1069.84 562.509,1049.01 557.076,1047.2C549.529,1044.78 506.363,1056.25 485.535,1066.21C448.708,1083.72 423.956,1110.29 416.409,1139.57C413.089,1152.25 412.183,1153.15 409.466,1147.72ZM417.918,1073.76C417.315,1048.71 434.521,1004.33 452.934,983.807L462.896,972.638L455.349,987.429C440.558,1016.41 450.519,1034.22 470.14,1014.3C480.403,1004.03 486.139,991.052 490.667,966.299L494.289,946.678L504.552,973.242C521.758,1016.71 521.154,1016.41 571.565,1025.16L585.149,1027.58L567.037,1029.69C557.076,1030.9 539.568,1034.52 527.795,1037.54C516.325,1040.56 506.363,1042.67 505.76,1042.07C505.156,1041.46 511.495,1038.14 519.947,1034.52C535.644,1027.58 537.757,1022.45 524.777,1022.45C518.74,1022.45 516.023,1019.12 509.382,1004.33C504.854,994.07 499.722,986.524 497.911,987.127C493.685,988.335 479.196,1015.5 481.309,1017.92C482.516,1018.82 487.044,1018.22 491.572,1016.41C496.1,1014.6 500.628,1013.99 501.534,1014.9C504.25,1017.31 486.139,1040.86 473.461,1051.12C452.934,1067.72 447.199,1068.63 462.896,1052.93C478.592,1037.24 482.818,1028.78 472.253,1034.52C464.707,1038.44 445.69,1038.44 443.275,1034.52C442.369,1033.01 440.256,1031.5 438.747,1031.5C435.124,1031.5 423.956,1056.25 420.937,1071.04C418.22,1084.33 418.22,1084.33 417.918,1073.76ZM593.903,992.561C588.469,989.24 583.338,985.014 581.828,982.901C580.621,980.788 584.243,981.996 589.978,985.316C603.26,993.467 613.825,996.485 613.825,992.561C613.825,990.75 611.109,989.24 608.09,989.24C604.77,989.24 601.147,988.033 600.242,986.222C599.034,984.411 602.657,983.203 608.694,983.203C618.655,983.203 625.9,978.072 630.126,968.11C631.031,965.695 631.333,968.11 630.428,973.544C629.824,978.675 629.824,983.203 630.428,983.203C631.333,983.203 634.956,978.675 638.276,973.544L644.615,963.582L642.502,972.638C641.596,977.77 638.276,985.014 635.257,989.24C628.013,999.202 607.486,1001.01 593.903,992.561ZM594.506,973.846C590.582,968.412 588.167,967.507 577.904,969.318C570.961,970.223 565.528,970.525 565.528,969.921C565.528,969.318 573.678,965.695 583.639,962.073C593.299,958.451 612.014,949.395 624.994,942.15L648.539,928.869L635.861,940.339C627.107,947.886 622.881,954.225 622.881,959.356C622.881,977.468 603.864,987.127 594.506,973.846Z" style="fill-rule:nonzero;"/>
            </g>
        </g>
    </g>
</svg>
