<?xml version="1.0" encoding="utf-8"?>
<!-- Generator: Adobe Illustrator 27.7.0, SVG Export Plug-In . SVG Version: 6.00 Build 0)  -->
<svg version="1.1" id="Livello_1" xmlns="http://www.w3.org/2000/svg" xmlns:xlink="http://www.w3.org/1999/xlink" x="0px" y="0px"
	 viewBox="0 0 592 212" style="enable-background:new 0 0 592 212;" xml:space="preserve">
<path d="M232.2,186.9v8.5h-11v-8.5h-2.2V206h2.2v-8.6h11v8.6h2.2v-19.1H232.2z M240,186.9h2.2V206H240V186.9z M245.6,196.5
	L245.6,196.5c0-5.5,4-9.9,9.7-9.9c3.5,0,5.5,1.2,7.5,3l-1.5,1.6c-1.6-1.5-3.4-2.6-6-2.6c-4.2,0-7.4,3.4-7.4,7.8v0.1
	c0,4.4,3.2,7.9,7.4,7.9c2.6,0,4.3-1,6.2-2.8l1.4,1.4c-2,2-4.2,3.4-7.6,3.4C249.7,206.3,245.6,202,245.6,196.5 M274.8,203.2l1.3-1.6
	c2,1.8,3.9,2.7,6.5,2.7c2.6,0,4.3-1.4,4.3-3.2V201c0-1.8-1-2.8-5-3.6c-4.4-1-6.4-2.4-6.4-5.5v-0.1c0-3,2.6-5.2,6.3-5.2
	c2.8,0,4.8,0.8,6.7,2.4l-1.3,1.7c-1.8-1.4-3.5-2.1-5.5-2.1c-2.5,0-4.1,1.4-4.1,3.1v0.1c0,1.8,1,2.8,5.2,3.7c4.3,0.9,6.2,2.5,6.2,5.4
	v0.1c0,3.3-2.7,5.4-6.5,5.4C279.6,206.3,277.1,205.3,274.8,203.2 M292.1,198v-11.1h2.2v11c0,4.1,2.2,6.4,5.8,6.4
	c3.5,0,5.8-2.1,5.8-6.3v-11.1h2.2v10.9c0,5.6-3.2,8.5-8,8.5C295.4,206.3,292.1,203.4,292.1,198 M326.5,186.9v15.3l-12-15.3h-2V206
	h2.1v-15.7l12.3,15.7h1.7v-19.1H326.5z M331.2,186.9v2h6.4V206h2.2v-17.1h6.4v-2H331.2z M361.7,186.9V206h2.1v-8.3h10.4v-2h-10.4
	v-6.8h11.6v-2H361.7z M378.1,198v-11.1h2.2v11c0,4.1,2.2,6.4,5.8,6.4c3.5,0,5.8-2.1,5.8-6.3v-11.1h2.2v10.9c0,5.6-3.2,8.5-8,8.5
	C381.3,206.3,378.1,203.4,378.1,198 M396.2,186.9v2h6.4V206h2.2v-17.1h6.4v-2H396.2z M413.9,198v-11.1h2.2v11c0,4.1,2.2,6.4,5.8,6.4
	c3.5,0,5.8-2.1,5.8-6.3v-11.1h2.2v10.9c0,5.6-3.2,8.5-8,8.5C417.1,206.3,413.9,203.4,413.9,198 M442.1,196.6c2.9,0,4.9-1.5,4.9-3.9
	v-0.1c0-2.4-1.8-3.8-4.9-3.8h-5.9v7.8H442.1z M434.1,186.9h8.2c2.4,0,4.2,0.7,5.4,1.9c0.9,0.9,1.5,2.3,1.5,3.8v0.1
	c0,3.2-2.2,5-5.2,5.6l5.9,7.8h-2.6l-5.5-7.4h-5.5v7.4h-2.2V186.9z M460.9,189.3l4.3,9.8h-8.7L460.9,189.3z M459.9,186.8l-8.7,19.2
	h2.2l2.3-5.1h10.4l2.2,5.1h2.3l-8.7-19.2H459.9z M219.1,41.6V18.5h8.9v22.9c0,6.6,3.3,10,8.7,10c5.4,0,8.7-3.3,8.7-9.7V18.5h8.9
	v22.8c0,12.2-6.9,18.2-17.7,18.2C225.7,59.5,219.1,53.5,219.1,41.6 M262.4,18.5h8.2l18.9,24.9V18.5h8.8v40.4h-7.6l-19.6-25.7v25.7
	h-8.8V18.5z M308.9,18.5h8.9v40.4h-8.9V18.5z M322.5,18.5h9.8l10.6,28.5l10.6-28.5h9.6l-16.3,40.7h-7.8L322.5,18.5z M367.8,18.5
	h30.5v7.9h-21.6v8.2h19v7.9h-19V51h21.9v7.9h-30.8V18.5z M424.9,38.1c4.3,0,6.8-2.3,6.8-5.7v-0.1c0-3.8-2.7-5.8-7-5.8h-8.8v11.6
	H424.9z M407,18.5h18.5c5.1,0,9.1,1.4,11.8,4.1c2.2,2.2,3.5,5.4,3.5,9.2v0.1c0,6.5-3.5,10.6-8.7,12.5l9.9,14.4h-10.4L422.9,46h-7
	v12.9H407L407,18.5L407,18.5z M445.2,53l5.2-6.3c3.6,3,7.5,4.9,12.1,4.9c3.6,0,5.8-1.4,5.8-3.8v-0.1c0-2.2-1.4-3.4-8.1-5.1
	c-8.1-2.1-13.4-4.3-13.4-12.4v-0.1c0-7.3,5.9-12.2,14.1-12.2c5.9,0,10.9,1.9,15,5.1l-4.6,6.7c-3.6-2.5-7.1-4-10.5-4
	s-5.2,1.6-5.2,3.5v0.1c0,2.6,1.7,3.5,8.7,5.3c8.2,2.1,12.8,5.1,12.8,12.1V47c0,8-6.1,12.5-14.8,12.5C456.2,59.5,450.1,57.3,445.2,53
	 M485.9,18.5h8.9v40.4h-8.9V18.5z M512.4,26.7h-12.3v-8.2h33.5v8.2h-12.3v32.2h-8.9V26.7z M556.5,42l-5.4-13.1L545.8,42H556.5z
	 M554.8,14.7h-6.7L540.3,9l7.6-3.3L554.8,14.7z M547.1,18.2h8.2l17.3,40.7h-9.3l-3.7-9.1h-17.1l-3.7,9.1h-9.1L547.1,18.2z
	 M234.8,103.1c7.3,0,12.2-4.9,12.2-12.1v-0.1c0-7.2-4.9-12.2-12.2-12.2H228v24.4H234.8z M219.1,70.7h15.8c12.7,0,21.5,8.7,21.5,20.1
	v0.1c0,11.4-8.8,20.2-21.5,20.2h-15.8L219.1,70.7L219.1,70.7z M261.5,70.7h30.5v7.9h-21.6v8.2h19v7.9h-19v8.5h21.9v7.9h-30.8V70.7z
	 M297.3,91v-0.1c0-11.5,9-20.9,21.2-20.9c7.3,0,11.7,2,15.9,5.5l-5.6,6.8c-3.1-2.6-5.9-4.1-10.6-4.1c-6.5,0-11.6,5.7-11.6,12.6v0.1
	c0,7.4,5.1,12.8,12.2,12.8c3.2,0,6.1-0.8,8.4-2.4v-5.8h-9v-7.7h17.5v17.5c-4.1,3.5-9.9,6.4-17.3,6.4
	C305.9,111.8,297.3,102.9,297.3,91 M343.4,70.7h8.9V103h20.1v8.1h-29V70.7z M377.2,70.7h8.9v40.4h-8.9V70.7z M406.9,105.2l5.2-6.3
	c3.6,3,7.5,4.9,12.1,4.9c3.6,0,5.8-1.4,5.8-3.8v-0.1c0-2.2-1.4-3.4-8.1-5.1c-8.1-2.1-13.4-4.3-13.4-12.3v-0.1
	c0-7.3,5.9-12.2,14.1-12.2c5.9,0,10.9,1.8,15,5.1L433,82c-3.6-2.5-7.1-4-10.5-4s-5.2,1.6-5.2,3.5v0.1c0,2.7,1.7,3.5,8.7,5.3
	c8.2,2.1,12.8,5.1,12.8,12.1v0.1c0,8-6.1,12.5-14.8,12.5C417.9,111.7,411.7,109.5,406.9,105.2 M453.2,78.9h-12.3v-8.2h33.5v8.2
	h-12.3v32.2h-8.9V78.9z M479.2,93.8V70.7h8.9v22.9c0,6.6,3.3,10,8.7,10s8.7-3.3,8.7-9.7V70.7h8.9v22.8c0,12.2-6.9,18.2-17.7,18.2
	C485.9,111.7,479.2,105.7,479.2,93.8 M537.1,103.1c7.3,0,12.2-4.9,12.2-12.1v-0.1c0-7.2-4.9-12.2-12.2-12.2h-6.9v24.4H537.1z
	 M521.3,70.7h15.8c12.7,0,21.5,8.7,21.5,20.1v0.1c0,11.4-8.8,20.2-21.5,20.2h-15.8V70.7z M564,70.7h8.9v40.4H564V70.7z M234.8,155.3
	c7.3,0,12.2-4.9,12.2-12.1v-0.1c0-7.2-4.9-12.2-12.2-12.2H228v24.4H234.8z M219.1,122.9h15.8c12.7,0,21.5,8.7,21.5,20.1v0.1
	c0,11.4-8.8,20.2-21.5,20.2h-15.8L219.1,122.9L219.1,122.9z M261.5,122.9h8.9v40.4h-8.9V122.9z M292.6,146v-23.1h8.9v22.9
	c0,6.6,3.3,10,8.7,10s8.7-3.3,8.7-9.7v-23.2h8.9v22.8c0,12.2-6.9,18.2-17.7,18.2C299.2,163.9,292.6,157.9,292.6,146 M351,155.3
	c7.3,0,12.2-4.9,12.2-12.1v-0.1c0-7.2-4.9-12.2-12.2-12.2h-6.9v24.4H351z M335.3,122.9h15.8c12.7,0,21.5,8.7,21.5,20.1v0.1
	c0,11.4-8.8,20.2-21.5,20.2h-15.8V122.9z M378.4,122.9h8.9v40.4h-8.9V122.9z M395.4,122.9h8.2l18.9,24.9v-24.9h8.8v40.4h-7.6
	l-19.6-25.7v25.7h-8.8V122.9z M439.9,122.9h30.5v7.9h-21.6v8.2h19v7.9h-19v8.5h21.9v7.9h-30.8V122.9z"/>
<path d="M123.4,18.6c0.4,1.3-1.1,2.1-1.9,2.7c-1.4-0.9-2.8-2.7-4.7-1.5c-0.6,0.2-0.2,0.9-0.3,1.3c1.6,1.6,4.6,1.9,5,4.2
	c0.4,2.1-0.3,4-2.2,5c-3.7,2-5.7-3.5-9.6-1.1c0.4-1.4,1.5-2.4,2.2-3.7c2.4,0.4,3.1,3.2,6,2.5c0.7-0.8,1.9-1.7,0.9-2.6
	c-2-1.6-5.9-1.7-5.7-5.1c-0.6-1.4,0.8-2,1.2-3C117.7,16.2,120.3,18.7,123.4,18.6 M88.5,18.1c1.9-0.6,4.4,1.2,6.2-0.5
	c0.6,1.4-0.9,2.1-0.9,3.3c-1.7-0.7-3.9-2.1-5.6-0.5c-0.5,1.2,0.9,1.8,1.7,1.9c2.6,0,5.6,0.6,6.7,3.1c0.7,2-0.8,3.4-2.2,4.3
	c-2.7,1.9-5.5-2.2-7.6,1.2l-0.6,0c-0.3-1.6,0.4-2.9,0.6-4.3c2.1,0.3,4.6,3,6.6,0.5c0.2-1,0.1-1.2-0.4-2c-2.5-1.9-7.7,0.3-8-4.1
	c-0.5-1.4,0.5-2.5,1.6-3C87.3,18.3,88.1,17.7,88.5,18.1 M107.1,23.3c-1.9,0-1.6,3.1-3.9,2.4c-0.1-1.9-4.3-3-1.8-4.2l2.6-3
	C105.4,19.6,106.8,21.3,107.1,23.3 M138.4,24.6c0.7,0.6,2,1.2,1.1,2.3l-1.6,1.7c-1.3-0.6-1.6-3.1-3.7-2.5c-1.6,2.7-3.9,5.6-2.8,9
	c-2.4,0.4-3.8-1.7-6-1.8c0.1-1.7,2.7-0.7,2.9-2.7c0.9-2.2,2.9-4.4,2.5-6.6c-1.3-1.4-3.1-1.3-4.9-1.2c-0.4-1.2,0.8-1.8,1.2-2.7
	C131.2,20.6,134.5,23.3,138.4,24.6 M67.1,28.8l0,1c-1.6-0.4-2.9,0.7-3.6,1.7c0.9,2.7,2.7,5.9,5.7,6.8l0,0.7
	c-1.7,0.9-3.2,2.5-5.2,2.8c1.2-3.4-1.5-6-3.5-8.5c-2.7-0.9-2.9,5.3-4.9,0.8l0-1l8.7-5.8C66,26.7,66.3,27.8,67.1,28.8 M75.3,28.6
	L75,28.9c-0.7-0.4-0.8-1.1-0.4-1.6C74.8,27.5,75.5,28,75.3,28.6 M83.6,32.4c-1.2-1.2-3.6-2.6-4.4-4.2c-2-2-4.2-5.6-7-5.4
	c-0.4,3.3-0.3,7.2,0.2,10.5c-0.2,1.3-0.8,2.3-0.9,3.7c1.6-0.1,3-0.6,4.2-1.4c0.2-1-0.9-1.3-1.4-1.9c0-0.7-0.1-1.5,0.3-2
	c1.2-0.1,1.8-1.6,3.3-1.1c1.2,0.8,1.5,1.9,1.4,3.3C80.8,33.3,82.4,33.4,83.6,32.4 M145.7,29.3c-3.2,1.2-5.1,4.7-5.1,8
	c0.5,1.3,1.9,1.9,3.3,1.6c2-2.2,3.9-4.5,4.4-7.3l0.6-0.7c1.1,1.2,3.4,1.6,3.4,3.6c-4.5,0.7-4.2,7.2-9.1,7.1
	c-2.3-0.3-4.8-1.5-5.7-3.8c0.2-4.2,3-7.3,3.7-11.3C143.1,26.8,144.6,28.2,145.7,29.3 M52.4,37.3c1,2.1,2.4,4,4.1,5.8
	c0.8,1.8,2.7,0.7,3.7,1.9c-1.2,0.8-2.2,3.4-4.2,3c-0.8-3.5-3.8-6.3-6.5-8.7l-0.7,0C49.2,38.1,51.7,35,52.4,37.3 M47.7,45.7
	c-2.2,0.5-4,1.7-4.5,4.1c1,1.6,2.2-0.3,3.3-0.4c0.9-1.4,2.2-1.8,3.6-2.1c1.3,0.4,3.2,0.1,3.7,1.9c0.6,2.2-0.8,4-2.5,5
	c-1.1,0.3-2.1,1-2.9,2c-0.2,0.9-0.2,1.4,0,2.3c-0.3-0.1-0.5,0.2-0.7,0.3c-0.9-1.2-1.8-2.3-1.7-3.9c1.5-0.8,3.3-2.3,3.8-4
	c-0.5-1.1-2-0.7-2.6-0.3c-1.3,1.7-3,2.4-5.2,2.1c-1.2-0.5-1.8-1.7-2-2.9c-0.5-1.9,1.8-3,2.9-4c2.8,0.3,1.6-5.3,4.2-2.4L47.7,45.7z
	 M158.3,46.2c-0.7,1.2-1.9,1.3-2.9,1.7c-1.3,0.1-1.9-1.6-3-1.9c0.4-2.2,2.8-3.9,4.5-5.4c0.9-0.2,1.7,0.9,2,1.6
	C159.7,43.5,159,45,158.3,46.2 M156.4,36.3l-1.3,0c-1.6,3.1-4.1,7.6-8.1,8.1l5.1,5.2c1.9,1.2,4.9,1.8,6.9,0.5
	c2.4-1.3,3.4-3.8,3.5-6.3C161.7,40.8,159.1,38.3,156.4,36.3 M169.6,51.2c-3.9,1.1-8.6,3-10.1,7.1l-0.3,0.3c-1.4-1.5-2.4-3.1-3.1-4.9
	c4.4,0.2,7.9-3.2,10.1-6.8C168,47.5,168.5,49.8,169.6,51.2 M36.3,65.4c-1.1-0.2-3.3-0.5-2.7-2.2c1.3-1.2,2.1-4.4,4.2-2.4
	C38.2,62.6,37.4,64,36.3,65.4 M42.4,61.3c-1.8-0.1-1.9-2-2.4-3.2c-1.4-0.5-2.5-1.8-4.3-1.2c-3.4,2.3-4.5,6.6-5.7,10.3
	c4.2,0.2,8.3,1.4,11,4.7c1.1-1.3,1.8-2.9,1.9-4.6c-1.6,0-2.4,0.5-3.6-0.6c0.2-1.3,0.7-2.6,1.6-3.7c1.8-0.9,2.7,1.3,3.7,1.9
	c1-1.2,1.6-2.6,2.2-4C45.4,60.4,44.1,61.7,42.4,61.3 M172.5,64.6c-1.4,1.3-3.7,1.7-5.6,1.1c-1.4-0.7-1.2-2.1-1.7-3.2
	c0.5-1.7,1.1-3.2,2.9-4c1.9-0.2,3.9-0.1,4.6,1.9C173.2,61.6,173.6,63.5,172.5,64.6 M173.7,57.7c-2.5-2.8-7.6-2.3-9.9,0.5
	c-1.2,2-1.8,5.1-0.5,7.2c1.4,2.2,3.6,3.8,6.3,3.5c2.2-0.4,4.4-1.9,5.5-3.4C175.7,62.9,175.7,59.7,173.7,57.7 M31.8,72.4
	c-2.6,1.4-3.4,4.1-3.8,6.7c0.8,0.9,1.7,1.6,3,1.3c1.4-1.1,0-2.6,0.2-4c1.2,0.3,2.6,0.3,3.6,0.9c0.8,1.6-3,2.5-0.2,3.6
	c2.4,0.4,2.5-2.3,3.2-3.7c0.5-1.5-1-2.1-1.1-3.3c1.5-0.3,2.6,0.5,3.7,1.2c-0.6,3.1-2.6,5.7-2.8,8.9c-1.3,1.1-2.1-1.1-3.3-1.2
	c-3,0.3-5.5-1.8-8.6-0.5c-0.5-0.5-0.5-1.7,0-2.3c0.9-3,1.8-6,2.8-8.9C30,70.6,30.7,71.9,31.8,72.4 M176.5,78.3
	c-1.4-0.2-1.2-1.7-1.7-2.6c0.8-1.7,3.5-1.1,3,0.9C177.8,77.7,177.3,78.1,176.5,78.3 M178.9,69.4l-1,0c-1.6,3.5-5.5,2.9-8.5,3.8
	c-0.9-0.2-1.4-0.2-2.3,0.1l0.8,3.9c1.3,2,1.9-1.4,3.3-1.1c0.8,0.6,1.2,1.3,1,2.3c-0.9,1.1-1.9,1.9-3.2,2.1c0,1.7,0,3.8,1.4,4.6
	c0.2-0.6,0.9-0.9,0.6-1.7c0.7-1.3,1.9-2.6,3.6-2.4c1.1,1.7,3.5,0.8,4.9,0.5C183.8,78.3,179.6,73.3,178.9,69.4 M36.6,94.3
	c0.5,1.2-0.5,2.3-1.6,2.3c-3.5,1.7-7.6,2-10.4,5.2c-0.4-1.4-0.9-3.7,0.2-4.9c2.9,1.3,5-0.9,7.2-2.1c-0.8-2.2-3.6-2.3-5.3-3.5
	l-2.3,0.4c0.3-1.8-0.2-3.8,0.9-5.3C28.3,90,32.6,92.2,36.6,94.3 M182.6,85.8c0.6,1.5,0.3,3.5,0.4,5.3c-2.1-1.3-5.1-1.5-7.6-0.8
	c-0.8,0.2-1.3,1.1-1.9,1.7c-0.4,1.8,0.5,3.3,2.1,3.9c2.5,0,5,0,6.9-1.5l1,0c-1.1,1.8,0.9,3.5-0.2,5.3c-1.4,0.5-1.9-1.3-3-1.6
	c-3.3-0.2-7.4,1.1-9.3-2.1c-1.3-2-0.7-4.8,0.5-6.6c2.3-3.1,7.6-0.9,10.4-3.5L182.6,85.8z M174.4,102.8c2.6,0.9,5.1,3.1,7.9,2.1
	c0.2,0.9,1,1.6,0.4,2.6c-1.9,1.5-6.6,1-5.8,4.4c1.6,2.4,6,3.5,3.4,6.8c-0.2,0.4-0.6,0.3-1,0.3l-1.4-1.3c-3.3,0.2-7-1.6-9.9,0.6
	c-0.4-0.1-1.1,0.3-1.3-0.3c0.6-1.5,0.3-4.2,2.2-4.3c0.7,2.2,3.4,0.7,5,1.5c0.4-0.6,1.3-0.2,1.6-1c-0.8-1.7-2.3-3-3.4-4.5
	c1.4-1.2,3.3-1.1,4.6-2.7c-1.3-1.1-2.8-1.8-4.3-2.2c-0.8,0.2-1.3,1-2.3,0.7l0.5-4.9C172.3,100.2,173,102.4,174.4,102.8 M36.9,108.5
	c-2.8-2.8-6.1,0.1-9.2,0.2c-0.6,0.8-1.3,1.9-1.9,2.3c-0.8-1.5-1.5-3.9-0.8-5.9c0.8,0.1,1.2,1.2,2,1.3c3.2-0.7,7,0,9.5-2.2
	C37.1,105.4,36.8,107.4,36.9,108.5 M138.5,84.6c0.6-0.4,0.7-1,0.6-1.7l-0.7-0.6c-0.9,1-1.4-1-2.3-0.9l-0.6,1
	c-1.4,10.4-0.9,21.3,1.7,31.2c-0.1-0.2-1.2-2.8-1.7-4.2c-1.7-8.4-1-17.9-5.2-25.2c-0.5-0.1-0.6,0.5-1,0.7l-0.8,8.9l-1.2,19.5
	l0.2,8.2c-1.6-3.3-1.3-7.4-1.9-11.1c0.3-7.9,0.5-16.6-2.2-23.7c-0.4,0.1-1.1-0.2-1.3,0.4c-0.1-1.3-1.3-2.6-0.4-3.9
	c1.7-1.6,0.3-6.5,3.5-5.3c0.3-0.6,1.1-0.2,1.6-0.4c0.8,1.9-0.7,3.7-1.5,5.3c-0.7,2.3,0.1,5.7,0.8,8.2c1,0.1,0.3-1,1-1.3
	c-1.1-1.6,0.7-3.3-0.4-4.9c0.8-3.2,3.6-6,2.4-9.6c0.2-0.6,0.9-0.2,1.3-0.4c0.4,1.7-0.7,3.6,0.8,5.2c2.2,1.1,1.2,4.1,2.4,5.9
	c0.1-2.4,1.2-6.1-1.2-7.9c-0.1-2,1.1-4.7-0.8-6.2c-0.9-0.2-1.3,0.5-1.9,0.7c-0.6-0.2-0.2-0.9-0.4-1.3c1.1-1,2.3-1.7,3.9-1.4
	c-1.1,5.1,5.2,6.1,4.5,11.1l0.7,0.6c0.1-1.8-0.3-4.1-1.1-5.9c-2.8-1.8-1-6.4-2.9-8.3c-0.2-0.1-0.4-0.3-0.5-0.4
	c-0.5-0.3-1.2-0.4-2.1-0.4c-0.2,0.3-0.8,0.5-0.6,1c-1.8-0.5,0.6-1.6,0.3-2.6c0.3-0.4,0.8-0.5,1.3-0.7c0,1.3,0.5,2.1,1.2,2.7
	c0.2,0.1,0.4,0.2,0.5,0.4c1.4,1,3.3,1.7,3.4,4l1,1l0.3-0.3c-0.7-2.3-1.5-4.9-3.1-6.5c-1.7-2-1.9-6.5-5.7-5.8
	c-0.7,0.6-1.4,1.6-0.6,2.3l0.3,0.3l-0.6,0.7c-3.9-1.9-0.2-9.2-6.4-8.1l-0.6,0.7l0.3,0.3l-0.3,0.3l-0.3-0.3c-1.1,0.5-0.5,1.5-0.6,2.3
	c0.4,0.6,1,0.7,1.7,0.6l1.3-1.7l1,1c-0.5,2.2-4.2,1.1-3.5,4c-1.6-1.6-3.9-4.3-2.1-6.9c0.8-1.3,1.1-2.9,0.9-4.6
	c0.6,1,0.2,2.7,1.7,2.9c1.3-0.6,3.2-1,4.6-0.4c2.3,2,5.8,2.9,8.6,1.5c1.3,0.8,0.3,2.1-0.3,3l-1.6,1.7c4.4,3.2,6,8.1,7.2,13
	c1.7,2.4,3.1,5.5,6.1,6.8c-3.2,0.2-5.3-2.5-8-3.8c-2,3.2,1,5.9,1.5,8.8c0,4.9,2.9,8.5,2.9,13.4l1.8,4.2
	C140.9,96.8,140.7,90.3,138.5,84.6 M138.4,94.8l-1,0.3c-0.5-2,0.1-3.2-0.1-5.3C137.8,91.5,138.6,92.9,138.4,94.8 M120.5,91
	c0.6,1.7,0.3,2.7,0.4,4.6C119.8,94.7,120.1,92.3,120.5,91 M119.8,87.7c0-0.8-0.3-1.4-1-1.9c-0.7,0.1-1.1,0.9-1.6,1.3
	c-0.9-1.5-1.1-3.4-2.3-4.8c-0.1,0-0.2,0.1-0.3,0.1c-1.8,2.1-1.9,6.8-5.6,6.5c-0.9-0.7-1.9-1.8-1.1-2.9c1.7-2.2,4.5,0.3,5.5-2.8
	c0.3-0.4,0.6-0.6,1.1-0.8c0.1-0.1,0.2-0.2,0.2-0.2c0,0,0.1,0.1,0.1,0.1c1.4-0.5,3.2-0.6,2.8-2.8c-0.5-0.6-1.3-0.2-2-0.3
	c-0.1-0.8,0.8-0.7,1.3-0.7c1.1,0.9,2.4,1.6,4,1.2c0.2,2.1-1.6,3.8-0.9,5.6L119.8,87.7z M113.3,109.9c-1.1,0.7-2.6,1.5-3.9,0.8
	c-1-1.3-2.4-1.5-2.4-3.2c1.6-2.6,4.6,0.8,6.2-1.8C114.8,106.8,113.3,108.4,113.3,109.9 M111.6,91.5l0.7,0c0.4,2-0.4,3.4-1.9,4.7
	c-1-0.6-1.8-1-2-2.3C107.8,91.3,110.8,92.9,111.6,91.5 M106.8,97.2c1.8,0.6,4.2,2.9,5.9,0.5c0.4,1.9-0.2,4.1-1.8,5.6
	c-1.8,0.2-3.5-1.3-4-2.9C106.4,99.6,106.3,98.1,106.8,97.2 M103.2,96.3c-1.3-1.9-3.3-3.9-2.1-6.5c2,2.4,7.2-2.6,5.3,2.8
	C105.9,94,105.1,96.2,103.2,96.3 M103.7,133.5c0.4,0.4,0.4,1,1,1.3c0.8,0.1,1.3-0.4,2-0.7c1.7,1.6-2.4,3.8,1.1,4.9
	c1.9,0.1,3-1.9,4.9-1.8c0.2,1.2-0.5,2.3-1.6,2.7c-1.5-0.2-3.1,0.2-3.6,1.7c-0.1,1.7,1.4,2.4,2.7,2.9c0.7,0,1.6-0.2,2,0.6
	c-2.8,1.2-4.9-3.3-7.6-1.1c-0.8,2.7,2.4,5.7-1.8,6.3c-3.7-0.5,0.5-7.2-4.1-5.5c-1,0.7-2.2,2-3.6,1.1l-0.3-0.3
	c1.7-0.8,3.7-1.4,4.5-3.4c-0.4-0.7-0.6-1.4-1.3-1.9c-1.2-0.5-2.8-0.1-3.7-1.6c1.6,1.5,5.1-0.4,5.7,2.5c-0.6,0.2-0.2,0.9-0.3,1.3
	c0.4,0.6,1,0.7,1.7,0.6c0.9,0.9-0.5,3.9,2,2.9c0.8-1.4,0.6-4.4,3.2-4c0.3-0.7,1.1-1.6,0.3-2.3c-2.3-0.7-0.6-3.2-2.1-4.2
	c-1.5,0.2-3.3-0.4-4.2,1.1c-0.9-0.1-1.6-0.9-2.3-1.6l0-0.6c1.6-0.3,3,2.8,4.3,0.2c-0.8-3,2.3-4.5,1.2-7.6l0.3-0.3l-0.3-0.3
	c0.7-5.1,0.8-10.3,2-15.2l0.7,0.6C102.8,118,105,126.4,103.7,133.5 M100.7,103.9c0.1-1.5,0.8-3,2.2-3.7c2.1-0.3,2,2.2,3,3.2
	c-0.5,1.4-1.3,2.6-2.6,3.7C101.5,107.1,101.6,105,100.7,103.9 M99.6,111.8l0.7,0.6c0.6,3.2,1.2,6.2,1.5,9.5l-0.7-0.6L99.6,111.8z
	 M97.9,109.2c-1.3,1-2.6,2.3-4.3,1.1c-1.7-0.6-1-3.2-0.8-4.6c1.4-1,2.4,2.7,4.3,0.9l1.3-1C100.8,106.3,98.3,108.1,97.9,109.2
	 M92.3,82.7c-1.6,1.2-0.7,3.3-1.9,4.7c-0.8-0.4-1.1-2.4-2.7-1.6c-1,2.8-0.5,6.1-1.4,8.9c-0.6-1-0.3-2.4-0.4-3.6l1-1
	c-3.3-0.4-0.3-7.2-4-3.8c-0.2,2.3-0.8,4.8-0.5,6.9l-1.6,18.8l-0.3,0.3c0.4-9.6-1.8-19.1-1.3-29.3l-0.7-1.3c-1.7,1.1-2.6,2.6-3.2,4.2
	c0,0,0,0.1,0,0.1l-0.1,0.1c-1.3,3.9-0.5,8.8-1.6,12.8c-1.8,5.5-0.7,12.2-5.6,16.6l-0.7,0c6.1-8.6,3.7-20.5,6.2-30.4
	c-1.5-1.4,1.5-4.4-1.4-4.2c-3.4,6.1-5.8,12.6-9.5,18.6c-0.2-1.4,1.8-2.8,2.2-4.3c0.3-6.2,2.7-11.7,4.9-17.2
	c-0.1-0.6,0.3-1.7-0.7-1.6c-2.5,0.4-4.4,2.3-7.2,2.1l-1.3,0c2.1-1.9,5.2-2.9,7.1-5.8c3.6-4.2,2.9-10.1,7.6-14c0.3-3.3-5.5,0-4-3.9
	c3.5,3.2,7.2-0.6,10.8-0.9c0.9-1.1,0.8-2.6,1.9-3.7c0.8,2.9,3.5,7.4-0.1,10.2c-1,1.6-2.2-0.2-3.6,0.4C79,60.6,78.6,59,79.3,58
	c0.3,0.1,0.5-0.2,0.7-0.3c0.6,0.4,0.2,1.3,1,1.6c0.8,0.2,1.4-0.3,1.6-1c0.5-1.3-0.8-2.2-1.7-2.6c-1.7-0.4-3.1,0.6-3.9,1.7
	c-0.6,1.2-0.1,3.2-0.2,4.3c-1.5,0.2-3.8,0.7-4.6,2.7c0,2.5-2.1,4.2-2.2,6.6c-0.4,1-1.8,2-1.2,3c2.7-1.1,2.4-4.4,5.1-6
	c0-0.4-0.1-0.8,0.3-1c1.4-0.3,2.5,1.8,4,1.9c-0.1,0.5,0.6,0.7,0.4,1.3l-0.3,0.3c-0.6-1-1.6-1-2.7-0.9c-1.4,3.8-4.7,6.9-6,10.7
	l0.3,0.3c1.4-3,4.7-4.5,5.8-7.7c2.3,1.3,4.2-1.2,6.2-0.5c-0.1,0.6,0.3,1.3-0.3,1.7c-0.7-0.3-1.4-0.8-2.3-0.6c-2.7,1.6-2.6,4.9-4.8,7
	c-0.3,1.9-0.6,3.8-0.9,5.6c0.3,0.2,0.5,0.8,1,0.6l0.6-0.6c0-0.1,0-0.1,0.1-0.2c-0.1-3.3,1.9-5.9,2.8-8.8c1.6-2.3,4.9,0.6,6.6-1.8
	c0.4,0.3,1.4,0.1,1,1c-0.6,0.9-1.2-0.3-2,0c-4.1,2.6-2.7,8-3.3,12.3l0.7,0.6c0.8-1.8,0.8-3.9,1.8-5.6c0-1.4-1-3.1,0.2-4.3
	c1.4-0.3,2.7,0.7,3.9-0.1c-0.1,1.9-1.1,3.8-0.2,5.6c0.9-0.8,0.8-2,1.2-3c1.4-1.1,3.3-1.8,4.2-3.4c0.4,0,0.8-0.1,1,0.3
	c-0.3,0.6-1.3,0.8-0.9,1.7c2,1.4,2.7,6.8,6,4.1c0.6,0.9,1.8,2.4,0.4,3.3c-1.4,2.1-3.5,0.3-4.3-1.2C93.4,85.4,93.7,83.7,92.3,82.7
	 M92.2,90.9l0-0.7l0.3-1L92.2,90.9z M89.9,77.8c-0.2,0.6-0.9,0.2-1.3,0.4l-0.3-0.3C88.8,77.7,89.5,77.2,89.9,77.8 M96.5,91.2
	c0,0.2,0,0.3-0.1,0.4c0.1,0.9,1.6,0.2,2,0.8c0.2,1.7,0,3.3-1.5,4.3c-0.8,0.4-1.1-0.6-1.7-0.9c-0.6-1-0.3-2.4-0.4-3.6
	c0.3-0.7,1.3-0.1,1.6-0.6C96.4,91.5,96.4,91.3,96.5,91.2 M94.3,99.1c2.2,1.2,3.7-1,5.6-1.4l0.7,0.7c-0.2,2.2-2.1,4.1-3.8,5.3
	c-1.9-0.1-1.8-2.2-2.7-3.2C94.1,100,93.8,99.4,94.3,99.1 M107.1,81.7c-1,1.9-2,4.8-4.2,5.4c-0.9-1.7-2.9-3.4-1.8-5.6
	C103.5,85.2,105.9,78.3,107.1,81.7 M95.8,76.4c1.4-1.6,3.7-1.1,5.6-1.8c1.3,0.6,1.2,2.7,3,2.2l1.6-2.7c2.9,2.1,7.6-2.2,7.7,3.5
	c-0.5,1.7-1.2,3.4-2.9,4.7c-2.4-1.4-2.3-4.6-3.4-6.8c-2.6,0.1-1.7,3.9-4.2,4.4c-1.1-1.2-1.9-2.6-2.1-4.2c-1.5,0.7-1,2.7-1.6,4
	c-1.2,0.9-1.5,2.9-3.2,2.7C94.6,80.6,95,78.4,95.8,76.4 M101.8,62.4c0.8-0.6,2.1-0.2,2.6-1.4c0.2-3.2-2.9-4.6-5.1-6.1
	c-0.4,0-0.8,0.1-1-0.3c3.3-0.3,5.4,4.4,8.6,2.1c0.9-1.5-2-2.5-0.1-3.3c2-0.1,3.3,1,3.7,2.9c0.1,4.6-4.8,11.4,1.3,14.1l0.3,0.3
	c-1.5,0.1-2,2.6-3.9,1.7c-0.9-0.7-1.5-2.2-3-1.6l-1.3,1.7c-1-2.6-3.7-1.1-5.3-0.2C101.8,70.1,102.2,66.3,101.8,62.4 M126,73.7
	c0.1,0.8-0.8,0.7-1.3,1C124.4,73.9,125.4,73.7,126,73.7 M141.3,80c1.7-1.3,2.9,0.9,4.6,0.6c0.5-0.4,1.5-0.6,2,0
	c0.3-0.6,1.1-0.2,1.6-0.4c0.9-0.1,0.9-1.1,1.3-1.7c-10.6-1.3-7.3-13.5-14.2-18.8c0.4-2.1,1.8-3.8,1.2-6.3c-0.8-0.8-1.1-2.7-2.7-2.2
	c-0.6,1-0.9,1.7-1.9,2.3c-2.5,0.6-3.9-1.6-6-2.2c-4.3,1-2.8-3.9-6.4-4.8c-1.5-0.3-4.3-1-4.9,1.1l2.3,2.6c1.1,2.5-0.3,4.8-1.2,6.9
	c0,2.3,1.3,3.9,2.8,5.5c0.6,0.9,0.1,3.1,2,2.6c1.9-0.8,2-2.7,3.2-4.3c0.6,0,0.9,0.6,1.3,1c-0.1,2.4,3.3,3.3,2.1,6.2
	c-1,3.2-4.5,3.5-6.4,5.7c-2.4-0.3-3.8,1.8-5.9,2.4c-1.6-0.4-1.6-2.2-2.4-3.2c0.3-0.2,0.5-0.8,1-0.7c0.9-0.3,1.1-0.7,0.9-1.7
	c-0.9-1.3-2.3-1.6-3.7-1.9c-4.3-3.7,0.7-8.4,0.4-12.8c-0.4-5.5-7.2-3.4-11-4.7c-2.4,2.8-8.2-0.1-9.1,4.2c0.8,0.5-0.2,2.4,1.4,2
	c-0.2-0.5,0.4-0.7,0.6-1c2.6-0.6,5.7,0.4,7.3,2.8c-2.2,0.9-4.4-2.3-6.6-0.2c0.9,1.1,2.6,0.3,3.3,1.9c2.8,1.3,1.6,4.7,1.5,6.9
	c-0.9,3-4.1,3.4-6.1,5.1c-0.3,0.9,0.6,1.3,0.7,1.9c-0.9,2.6-3.5,1.2-5.2,0.8c-1.7-1.4-5.2-1.1-5-4.2c-0.9,0-1.2-1.5-2.3-0.9
	c-0.4-0.5-1.2-0.9-1.4-1.6c-1.5-1-2.7-3-1.8-4.9c2.4-3,3.1,2.6,6,1.5c-0.3-2.8,1.4-4.8,2.8-7c0.9-2.7-0.4-5.2-1.2-7.5
	c0.1-1.8,2.3-2.1,2.2-3.7c-3.3-1.6-7,1.2-7.1,4.4c-2.1,1.8-4.8,2.1-7.5,2.5c-1.4-0.4-2-2.5-3.7-2.2c-0.5,0.9-1.3,1.7-0.9,3
	c-0.5,2.1,0.7,3.7,2.4,4.6c-2.1,3.6-3.6,7.3-4.7,11.3c-2.3,4.2-6.5,5.6-10.4,6.8c0.7,2.3,3.6,2.2,5.7,2.5c1.3-0.2,3.5-1.3,4.3,0.2
	c-4.3,7.1-2.2,17-9.7,22.6l2.3,0.3c6.7-0.2,7.8-7.8,10.6-12.1l0.3,0.3c-1.5,8.9,0.8,20.2-7.7,25.5c2.1,0.9,4.2,0.9,6.2-0.1
	c3.9-3.2,5.4-7.9,6-12.6c0.8-3.3,0.6-7,2.4-9.9c1.3,1.4,0.2,3.9,1.1,5.6c-0.7,9,3,20-3.7,26.4c0.6,0.2,0.9,0.9,1.7,0.6
	c7.3-2.1,6.1-10.9,6.9-17.3c0.5-3,0-6.3,1.4-8.9c0.2,1.3,1,2.4,0.7,3.9l1,0c0.8-3.8,2.1-7.3,2.4-11.2l0.7-0.7l1,1
	c0.6-0.6,1.5-1.6,1.6-2.7c0.3,1.3,0.8,2.5,0.7,3.9c-1.6,2.4,0.8,6.3-1.8,8.3c-1.2,2.9-0.4,6.6,0.9,9.2c0.7,3.6-0.4,7.6-3.4,9.9
	c-1-0.8-1.7-1.6-1.4-2.9c-0.3-1.2-1.1-2-2.4-2.2c-0.2,1.3-0.7,2.6-1.6,3.7c-0.6,2,1.5,3.2,2.7,4.6c-1.3,4-8.7-1-7.1,4.8l1.7,0
	c3,2,4.9-2.4,7.8-2.5c1.6,2.3-2.7,3.9-2.2,6.6c1.7-0.3,3.5-0.6,4.6-2.4c-0.8-3.5,3.3-5.2,5.4-6.7c2.7-0.1,1.2-3,1.6-4.7
	c-1.2,0.2-2,1.5-3.3,1.7c-0.6-0.3-0.6-0.9-1-1.3c0.9-2.6,1.7-5.5,3.8-7.3c3.1,5,2.7,11.6,3.4,17.7c-0.3,2.2-2,0-3.3,0.7
	c-1.6,0.6-1,2.7-1.6,4c-1.3-0.7-2.7-1.1-4.3-0.9c-0.7,0.3-1.7,1-1.3,2c2.8,1,2.6,4.3,5.1,5.5c-0.2,0.4-0.6,0.3-1,0.4
	c-1.3,0.5-3.2,1.9-2.9,3.7c2.1,0,4,1.5,5.9,0.9c0.7,0,1.6-0.2,2,0.6c0.3,1.8,1.2,3.7,3.1,4.5c2-0.7,4.7-2,5.2-4.1
	c-0.5-3.9,3.3,0.5,5.2-1.4c1.2-0.3,2.7,1.5,3.3-0.1c0.2-2.7-3-3.2-3.7-5.2c1.7-0.8,2.6-3.3,4.5-3.4c0.2-0.9-0.3-1.6-0.7-2.3
	c-1.8-1.3-4.3-0.2-6.3,0.1c-1-0.9,0.5-1.6-0.1-2.6c-0.4-1.4-1.9-1.4-3-1.6c-2.2-3.5-0.4-7.9-0.6-11.8c1-2.4,0.1-6.2,3.1-7.3
	c4,0.8,3.1,5.4,3.8,8.5c-1.5,1.8-2.8-1.1-4.6-0.6l0.4,2.3c0.3,0.9,1.3,1.6,2.3,1.3c3,1.2,5.8,3,6.1,6.5c1,1.3,2.8,0.7,3.7,2.2
	c0.6-0.5,0.2-1.3,0.3-2c-0.7-1.7-3.9-2.8-2.7-4.9c2.4,1.9,5.6,3,8.6,2.4c-1.1-4-5.6-2.7-7.7-4.8c1.1-1.2,3-0.4,3.9-2.1
	c0.6-2.2-1.2-3.3-1.1-5.2c-3.8-0.3-1.8,4.2-4.2,5.4c-1.1-0.1-1.1-1-2-1.6c-3-6.9,2.7-12.6-1.4-19.1c1.1-3.1-1.2-7.2,0.4-10.5
	c1.1,0.5,1.1,2,2,2.9c0.5,0.1,0.6-0.5,1-0.7l0.7,0.6c0.2,3.8,1,7.4,2.2,10.8c1.1-1.4,1-3.2,1.9-4.7l0.7,0.7l1.4,19.7l1.4,3.9
	c1,2.3,3.5,3.9,6,3.8l0-0.7c-2.8-2.1-2.4-5.5-3.1-8.5c0.3-7.4,0.1-14.9,0.8-22.1l0.6-0.7c2.4,7.7,1.9,17,8.7,22.5
	c1.6,0.1,3.3,1.1,4.9,0.2l0-0.7c-6.4-4.1-6.8-12.6-7-20.2l0.6-0.7c0.2,0.6,0.9,0.2,1.3,0.3c1.5,1.6,2.6,3.3,3.4,5.2
	c1.5,2.1,3.7,3.9,6.4,3.8c1-0.6,2.7-0.2,2.9-1.7C141.9,100.2,145.8,87.8,141.3,80 M39.4,115.7l0,1.3c-1.1,0.1-2.3-0.7-3.3,0.1
	c-1.8,2.1-3,4.5-3.8,7c2.3,1.2,3.8-1.3,5.9-1.4l1.9-2.7c1.3,1,1.6,3,2.4,4.6c-4.2-0.1-8,1.2-10.4,4.5c-1.9,0.5-1.6-1.7-2.4-2.6
	c-0.5-3.1,2.5-5.2,1.8-7.9c-1.5-0.5-2.5,1-3.3,1.7c-1.4-0.7-1.4-2.6-1.4-4.2c3.5,1.4,6.1-1.2,9.2-1.8
	C37.1,110.9,39.2,114.2,39.4,115.7 M174,128.4c-1.2,1.2-3.5,0.4-4.2,2.1c-0.6-0.1-1.3,0.3-1.7-0.3c2.4-2.3-4-5.2,0.5-5.3
	c1.5,0.3,1.9-1.7,3.6-1.1C172.5,125.5,173,127.1,174,128.4 M47,131c1.4,1.4,1.7,3.7,1.1,5.6c-1.7,3.3-6.2,3.5-7.1,7.4
	c-1.7,0-2.2-2.2-2.7-3.6c3-0.7,5.9-2.4,7.8-5.1c0.2-1.6-1.1-2.9-2.4-3.6c-3.1,0-5.9,1.2-7.5,4.1l0,0.7c-1.8-0.3-2-2.5-2.7-3.9
	c4.4,0,7.2-4.4,11.8-2.9L47,131z M171.9,137.1c-0.3,1.5-1.3,3.3-2.9,3.7c-1.2-3-4.4-5.4-7.7-5.4c-0.8,0.9-1.9,1.8-1.9,3
	c1.2,3.1,4.6,5.2,7.7,5.8c-0.6,1.2-1.1,2.7-2.6,3.4c-0.4-0.4-1.4-0.4-1-1.3c-2.6-3-8.8-5.4-6.5-10.4c1.2-1.6,2.7-2.5,4.6-2.7
	C165.6,132.7,167.9,137.1,171.9,137.1 M53.5,144.3c-0.8,2.1,0.1,3.9-0.2,5.9c-1.8,0.2-3.2-1.8-5-0.5l-1.3-0.6c3-1.7-2.4-7.7,3.2-5
	C51.5,144.6,52.6,142.7,53.5,144.3 M150.6,144.8c-1.2,3.3,2.1,5.4,3.8,7.8c1.2,1.2,1.9-0.8,2.9-1.1c1.8-0.5-0.2-4,2.2-2.7
	c0.8,0.7,1.6,1.4,1.4,2.6c-3.5,2.8-6.2,5.3-9.7,8.1c-1.8,0.8-1.8-1.2-2.7-1.9c1.4-0.5,3.5-1.2,4.2-3.1c-2.4-2.1-3.3-6.4-7.1-6.4
	c0.6-1.5,2.6-2.5,3.9-3.7L150.6,144.8z M69.9,154.8c-0.9,1-2.3,2.5-3.9,2.7c0.2-1.8-1.2-2.7-2.4-3.9c-1-0.4-1.4,0-2.3,0.4
	c-1.6,3.9,6.3,6.7,1.2,10.2c-2.1,0.2-4,0.1-5.3-1.9c0.9-2.4-5.6-5-0.5-5.9c1.8,0.4,1.8,6.4,4.4,3.5c-1.2-2.2-3.3-4.5-2.5-7.2
	c0.6-1.3,1.8-2.3,3.2-2.4C65.6,149.9,66.7,154.8,69.9,154.8 M141.2,152.2c-0.4,3.3,2,6.2,4.1,8.8c0.6,0.6,2.7-0.1,2,1.6
	c-1.5,0.7-2.7,2.1-4.6,2.1c-1-3.7-2.4-7.8-6.1-9.7C137.3,153.3,139.5,152.7,141.2,152.2 M76.5,157.9c0.4,0.9-0.6,0.7-1,1
	c-2,2.9-5.1,5.8-3.7,9.6c-2,0.5-3.2-1.1-4.7-1.9c-0.3-1,1.1-0.8,1.6-1.4c1.4-2.9,5.1-5.8,3.1-9.3C73.8,155.8,74.8,157.8,76.5,157.9
	 M133.4,157c-0.1,3.6,1.6,7.8,4.8,9.8c0.1,1.9-2.1,1.3-2.9,2.4c-2.7-0.1-4.9-1.6-7.3-2.5c-1.4,1,0.1,2.4,0.1,3.6
	c0.4,0.4,1,0.4,1.3,0.9c-1.4,0.8-2.8,1.6-4.6,1.4c0.4-4.1-1.4-8.4-3.9-11.4c1.3-0.6,3.1-1.7,4.9-1.8c0.2,1.5-0.8,3.9,1.8,4.6
	c1.6,0.8,3.4,2.4,5.3,1.5c-0.6-2.5-1.3-5.4-3.8-6.8C130.1,157.7,131.7,155.9,133.4,157 M89.1,162.3c0.2,1.2-0.6,2.3-1.6,2.7
	c-1.8-0.7-3.1-2.5-5.3-2.2c-0.3,0.7-1.1,1.6-0.3,2.3c1.7,2.1,4.9,2.3,5.4,5.1c0.1,1.8-1.1,2.8-2.6,3.4c-3.8,0.5-6-3.2-9.6-3.1
	c-0.2-0.9,0.9-1.7,1.6-2c2.3-0.4,5.2,5.3,6.3,0.8c-1.6-2.7-7.3-4.1-4.8-8.1c1.4-2.1,4.3-1.2,6.2-0.8C86.2,160.7,87,163.1,89.1,162.3
	 M96.7,163.4c0.2,1.2-1.6,1.6-0.9,3c1.3,1.6,2.6,3.8,4.7,4.5c1.2-1.5,0.4-3.7,0.5-5.6c-0.6-0.6-1.3-1-1-1.9c1.8-0.3,3.3,0.4,4.9,0.5
	c-2.8,2.6-1.2,7.3-1.1,10.6l1,1c-4.9,3.2-6.1-3.6-9.3-5.1c-1.2,0.9-1.1,2.8-0.6,4l0.3,0.3c-1.6,0.7-3.6,0-5.3-0.2
	c0-0.7,1.4-1.4,1.6-2.3c0-3.2,1.1-6.4,0.1-9.6C93.6,162.3,95.3,162.6,96.7,163.4 M118.1,162.3c-0.7,4.1,0,8.3,2.2,11.5l-1,0.7
	l-10.2,1.2c-1.2-0.4-0.5-1.8-0.7-2.6c0.8-0.3,2.1,0.2,3,0.9c1.6-0.7,3.8,0.1,4.9-1.8c0.1-1.2,0-2.6-1.4-2.9c-1.1,0.8-1.1,2-2.6,2
	c-0.8-1.3-0.9-3.4-0.4-4.9l1,0c0,0.6,0.7,0.9,1,1.3c0.6,0.2,0.9-0.3,1.3-0.7c0.1-1.1,0-2-1-2.6c-1.8,0.8-4.8-0.3-5.5,2.4l-0.7,0
	l-0.1-3.3C111.4,163.4,114.3,161.8,118.1,162.3 M103.2,34.4c-0.7,0-1.3-0.6-1.3-1.3c0-0.7,0.6-1.4,1.3-1.4c0.2,0,0.5,0,0.7,0
	c0.1,0,0.2,0,0.4,0c0.7,0,1.3,0.6,1.3,1.4c0,0.7-0.6,1.3-1.3,1.3h0c-0.1,0-0.2,0-0.4,0C103.6,34.4,103.4,34.4,103.2,34.4L103.2,34.4
	z M108.9,34.6c0,0-0.1,0-0.1,0c-0.2,0-0.4,0-0.7,0c-0.7,0-1.3-0.7-1.2-1.4c0.1-0.7,0.7-1.3,1.4-1.2c0.2,0,0.4,0,0.7,0
	c0.7,0.1,1.3,0.7,1.2,1.4C110.2,34.1,109.6,34.6,108.9,34.6 M98.5,34.7c-0.7,0-1.3-0.5-1.3-1.2c-0.1-0.7,0.5-1.4,1.2-1.5
	c0.2,0,0.4,0,0.7,0c0.7,0,1.4,0.5,1.4,1.2s-0.5,1.4-1.2,1.4c-0.2,0-0.4,0-0.7,0C98.6,34.7,98.5,34.7,98.5,34.7 M113.6,35.2
	c-0.1,0-0.1,0-0.2,0c-0.2,0-0.4-0.1-0.7-0.1c-0.7-0.1-1.2-0.8-1.1-1.5c0.1-0.7,0.8-1.2,1.5-1.1c0.2,0,0.4,0.1,0.7,0.1
	c0.7,0.1,1.2,0.8,1.1,1.5C114.8,34.7,114.2,35.2,113.6,35.2 M93.8,35.2c-0.7,0-1.2-0.5-1.3-1.1c-0.1-0.7,0.4-1.4,1.1-1.5
	c0.2,0,0.4-0.1,0.7-0.1c0.7-0.1,1.4,0.4,1.5,1.1c0.1,0.7-0.4,1.4-1.1,1.5c-0.2,0-0.4,0.1-0.7,0.1C94,35.2,93.9,35.2,93.8,35.2
	 M118.2,36.1c-0.1,0-0.2,0-0.3,0c-0.2,0-0.4-0.1-0.6-0.1c-0.7-0.2-1.2-0.9-1-1.6c0.2-0.7,0.9-1.2,1.6-1c0.2,0,0.4,0.1,0.7,0.2
	c0.7,0.2,1.2,0.9,1,1.6C119.3,35.6,118.8,36.1,118.2,36.1 M89.2,36.1c-0.6,0-1.2-0.4-1.3-1c-0.2-0.7,0.3-1.4,1-1.6
	c0.2,0,0.4-0.1,0.7-0.2c0.7-0.2,1.4,0.3,1.6,1s-0.3,1.4-1,1.6c-0.2,0-0.4,0.1-0.6,0.2C89.4,36.1,89.3,36.1,89.2,36.1 M122.7,37.3
	c-0.1,0-0.3,0-0.4-0.1c-0.2-0.1-0.4-0.1-0.6-0.2c-0.7-0.2-1.1-1-0.9-1.7s1-1.1,1.7-0.9c0.2,0.1,0.4,0.1,0.7,0.2
	c0.7,0.2,1.1,1,0.9,1.7C123.8,36.9,123.3,37.3,122.7,37.3 M84.7,37.4c-0.6,0-1.1-0.4-1.3-0.9c-0.2-0.7,0.2-1.5,0.9-1.7
	c0.2-0.1,0.4-0.1,0.7-0.2c0.7-0.2,1.5,0.2,1.7,0.9c0.2,0.7-0.2,1.5-0.9,1.7c-0.2,0.1-0.4,0.1-0.6,0.2C85,37.3,84.9,37.4,84.7,37.4
	 M127.1,38.8c-0.2,0-0.3,0-0.5-0.1c-0.2-0.1-0.4-0.2-0.6-0.2c-0.7-0.3-1-1-0.8-1.7c0.3-0.7,1-1,1.7-0.8c0.2,0.1,0.4,0.2,0.6,0.2
	c0.7,0.3,1,1,0.8,1.7C128.1,38.5,127.7,38.8,127.1,38.8 M80.3,39c-0.5,0-1-0.3-1.2-0.8c-0.3-0.7,0.1-1.5,0.8-1.7
	c0.2-0.1,0.4-0.2,0.6-0.2c0.7-0.3,1.5,0.1,1.7,0.8c0.3,0.7-0.1,1.5-0.8,1.7c-0.2,0.1-0.4,0.2-0.6,0.2C80.6,38.9,80.5,39,80.3,39
	 M131.4,40.7c-0.2,0-0.4,0-0.6-0.1c-0.2-0.1-0.4-0.2-0.6-0.3c-0.7-0.3-1-1.1-0.6-1.8c0.3-0.7,1.1-1,1.8-0.6c0.2,0.1,0.4,0.2,0.6,0.3
	c0.7,0.3,0.9,1.1,0.6,1.8C132.4,40.4,131.9,40.7,131.4,40.7 M76,40.8c-0.5,0-1-0.3-1.2-0.8c-0.3-0.7-0.1-1.5,0.6-1.8
	c0.2-0.1,0.4-0.2,0.6-0.3c0.7-0.3,1.5,0,1.8,0.6c0.3,0.7,0,1.5-0.6,1.8c-0.2,0.1-0.4,0.2-0.6,0.3C76.4,40.8,76.2,40.8,76,40.8
	 M135.5,42.9c-0.2,0-0.5-0.1-0.7-0.2c-0.2-0.1-0.4-0.2-0.6-0.3c-0.6-0.4-0.9-1.2-0.5-1.8s1.2-0.9,1.8-0.5c0.2,0.1,0.4,0.2,0.6,0.3
	c0.6,0.4,0.9,1.2,0.5,1.8C136.4,42.7,136,42.9,135.5,42.9 M71.9,43.1c-0.5,0-0.9-0.2-1.2-0.7c-0.4-0.6-0.2-1.5,0.5-1.8
	c0.2-0.1,0.4-0.2,0.6-0.3c0.6-0.4,1.5-0.1,1.8,0.5s0.1,1.5-0.5,1.8c-0.2,0.1-0.4,0.2-0.6,0.3C72.3,43,72.1,43.1,71.9,43.1
	 M139.5,45.4c-0.3,0-0.5-0.1-0.8-0.2c-0.2-0.1-0.4-0.2-0.5-0.4c-0.6-0.4-0.8-1.2-0.4-1.9s1.2-0.8,1.9-0.4c0.2,0.1,0.4,0.2,0.6,0.4
	c0.6,0.4,0.8,1.2,0.4,1.9C140.4,45.2,139.9,45.4,139.5,45.4 M67.9,45.6c-0.4,0-0.8-0.2-1.1-0.6c-0.4-0.6-0.3-1.4,0.3-1.9
	c0.2-0.1,0.4-0.3,0.6-0.4c0.6-0.4,1.4-0.2,1.9,0.4s0.2,1.5-0.4,1.9c-0.2,0.1-0.4,0.2-0.5,0.4C68.4,45.5,68.2,45.6,67.9,45.6
	 M143.3,48.2c-0.3,0-0.6-0.1-0.8-0.3c-0.2-0.1-0.3-0.3-0.5-0.4c-0.6-0.5-0.7-1.3-0.2-1.9s1.3-0.7,1.9-0.2c0.2,0.1,0.4,0.3,0.5,0.4
	c0.6,0.5,0.7,1.3,0.2,1.9C144.1,48,143.7,48.2,143.3,48.2 M64.2,48.4c-0.4,0-0.8-0.2-1-0.5c-0.5-0.6-0.4-1.4,0.2-1.9
	c0.2-0.1,0.4-0.3,0.5-0.4c0.6-0.5,1.4-0.4,1.9,0.2c0.5,0.6,0.4,1.4-0.2,1.9c-0.2,0.1-0.3,0.3-0.5,0.4C64.8,48.3,64.4,48.4,64.2,48.4
	 M146.8,51.2c-0.3,0-0.6-0.1-0.9-0.3c-0.2-0.2-0.3-0.3-0.5-0.4c-0.6-0.5-0.6-1.3-0.1-1.9c0.5-0.5,1.3-0.6,1.9-0.1
	c0.2,0.2,0.3,0.3,0.5,0.5c0.5,0.5,0.6,1.3,0.1,1.9C147.6,51.1,147.2,51.2,146.8,51.2 M60.6,51.4c-0.4,0-0.7-0.1-1-0.4
	c-0.5-0.5-0.5-1.4,0.1-1.9c0.2-0.2,0.3-0.3,0.5-0.5c0.5-0.5,1.4-0.5,1.9,0.1s0.5,1.4-0.1,1.9c-0.2,0.2-0.3,0.3-0.5,0.4
	C61.3,51.3,60.9,51.4,60.6,51.4 M150.2,54.5c-0.4,0-0.7-0.1-1-0.4c-0.1-0.2-0.3-0.3-0.4-0.5c-0.5-0.5-0.5-1.4,0-1.9s1.4-0.5,1.9,0
	c0.2,0.2,0.3,0.3,0.5,0.5c0.5,0.5,0.5,1.4-0.1,1.9C150.8,54.4,150.5,54.5,150.2,54.5 M57.3,54.8c-0.3,0-0.7-0.1-0.9-0.4
	c-0.5-0.5-0.6-1.3-0.1-1.9c0.2-0.2,0.3-0.3,0.5-0.5c0.5-0.5,1.4-0.6,1.9,0c0.5,0.5,0.6,1.4,0,1.9c-0.2,0.2-0.3,0.3-0.5,0.5
	C58,54.6,57.7,54.8,57.3,54.8 M153.2,58c-0.4,0-0.8-0.2-1-0.5c-0.1-0.2-0.3-0.3-0.4-0.5c-0.5-0.6-0.4-1.4,0.2-1.9
	c0.6-0.5,1.4-0.4,1.9,0.2c0.1,0.2,0.3,0.3,0.4,0.5c0.5,0.6,0.4,1.4-0.2,1.9C153.8,58,153.5,58,153.2,58 M54.2,58.3
	c-0.3,0-0.6-0.1-0.8-0.3c-0.6-0.5-0.7-1.3-0.2-1.9c0.1-0.2,0.3-0.3,0.4-0.5c0.5-0.6,1.3-0.7,1.9-0.2s0.7,1.3,0.2,1.9
	c-0.1,0.2-0.3,0.3-0.4,0.5C55,58.1,54.6,58.3,54.2,58.3 M156.1,61.8c-0.4,0-0.8-0.2-1.1-0.6c-0.1-0.2-0.2-0.4-0.4-0.5
	c-0.4-0.6-0.3-1.4,0.3-1.9s1.4-0.3,1.9,0.3c0.1,0.2,0.3,0.4,0.4,0.6c0.4,0.6,0.3,1.4-0.3,1.9C156.6,61.7,156.3,61.8,156.1,61.8
	 M51.5,62.1c-0.3,0-0.5-0.1-0.8-0.2c-0.6-0.4-0.8-1.2-0.3-1.9c0.1-0.2,0.3-0.4,0.4-0.6c0.4-0.6,1.3-0.8,1.9-0.3s0.8,1.3,0.3,1.9
	c-0.1,0.2-0.2,0.4-0.4,0.5C52.3,61.9,51.9,62.1,51.5,62.1 M158.6,65.8c-0.5,0-0.9-0.2-1.2-0.7c-0.1-0.2-0.2-0.4-0.3-0.6
	c-0.4-0.6-0.2-1.5,0.5-1.8c0.6-0.4,1.5-0.2,1.8,0.5c0.1,0.2,0.2,0.4,0.4,0.6c0.4,0.6,0.2,1.5-0.5,1.8
	C159,65.7,158.8,65.8,158.6,65.8 M49,66c-0.2,0-0.5-0.1-0.7-0.2c-0.6-0.4-0.9-1.2-0.5-1.8c0.1-0.2,0.2-0.4,0.3-0.6
	c0.4-0.6,1.2-0.8,1.8-0.5c0.6,0.4,0.8,1.2,0.5,1.8c-0.1,0.2-0.2,0.4-0.3,0.6C49.9,65.8,49.4,66,49,66 M160.8,69.9
	c-0.5,0-1-0.3-1.2-0.8c-0.1-0.2-0.2-0.4-0.3-0.6c-0.3-0.7-0.1-1.5,0.6-1.8s1.5-0.1,1.8,0.6c0.1,0.2,0.2,0.4,0.3,0.6
	c0.3,0.7,0.1,1.5-0.6,1.8C161.2,69.8,161,69.9,160.8,69.9 M46.8,70.2c-0.2,0-0.4,0-0.6-0.1c-0.7-0.3-0.9-1.1-0.6-1.8
	c0.1-0.2,0.2-0.4,0.3-0.6c0.3-0.7,1.1-0.9,1.8-0.6s0.9,1.1,0.6,1.8c-0.1,0.2-0.2,0.4-0.3,0.6C47.7,69.9,47.2,70.2,46.8,70.2
	 M162.7,74.2c-0.5,0-1-0.3-1.2-0.8c-0.1-0.2-0.2-0.4-0.2-0.6c-0.3-0.7,0-1.5,0.7-1.8c0.7-0.3,1.5,0,1.8,0.7c0.1,0.2,0.2,0.4,0.3,0.6
	c0.3,0.7-0.1,1.5-0.7,1.7C163.1,74.1,162.9,74.2,162.7,74.2 M44.9,74.4c-0.2,0-0.3,0-0.5-0.1c-0.7-0.3-1-1.1-0.8-1.7
	c0.1-0.2,0.2-0.4,0.3-0.6c0.3-0.7,1.1-1,1.8-0.7c0.7,0.3,1,1.1,0.7,1.8c-0.1,0.2-0.2,0.4-0.2,0.6C45.9,74.1,45.4,74.4,44.9,74.4
	 M164.3,78.6c-0.6,0-1.1-0.4-1.3-0.9c-0.1-0.2-0.1-0.4-0.2-0.6c-0.2-0.7,0.1-1.5,0.9-1.7c0.7-0.2,1.5,0.2,1.7,0.8
	c0.1,0.2,0.1,0.4,0.2,0.7c0.2,0.7-0.2,1.5-0.9,1.7C164.6,78.6,164.4,78.6,164.3,78.6 M43.3,78.9c-0.1,0-0.3,0-0.4-0.1
	c-0.7-0.2-1.1-1-0.9-1.7c0.1-0.2,0.1-0.4,0.2-0.7c0.2-0.7,1-1.1,1.7-0.9c0.7,0.2,1.1,1,0.9,1.7c-0.1,0.2-0.1,0.4-0.2,0.6
	C44.4,78.5,43.9,78.9,43.3,78.9 M165.6,83.1c-0.6,0-1.1-0.4-1.3-1c-0.1-0.2-0.1-0.4-0.2-0.6c-0.2-0.7,0.3-1.4,1-1.6
	c0.7-0.2,1.4,0.3,1.6,1c0.1,0.2,0.1,0.4,0.2,0.7c0.2,0.7-0.3,1.4-1,1.6C165.8,83.1,165.7,83.1,165.6,83.1 M42.1,83.4
	c-0.1,0-0.2,0-0.3,0c-0.7-0.2-1.2-0.9-1-1.6c0-0.2,0.1-0.4,0.2-0.7c0.2-0.7,0.9-1.2,1.6-1c0.7,0.2,1.2,0.9,1,1.6
	c0,0.2-0.1,0.4-0.2,0.6C43.2,83,42.7,83.4,42.1,83.4 M166.5,87.7c-0.6,0-1.2-0.5-1.3-1.1c0-0.2-0.1-0.4-0.1-0.7
	c-0.1-0.7,0.4-1.4,1.1-1.6c0.7-0.1,1.4,0.4,1.6,1.1c0,0.2,0.1,0.4,0.1,0.7c0.1,0.7-0.4,1.4-1.1,1.5
	C166.6,87.7,166.6,87.7,166.5,87.7 M41.2,88c-0.1,0-0.1,0-0.2,0c-0.7-0.1-1.2-0.8-1.1-1.5c0-0.2,0.1-0.4,0.1-0.7
	c0.1-0.7,0.8-1.2,1.5-1.1s1.2,0.8,1.1,1.5c0,0.2-0.1,0.4-0.1,0.7C42.4,87.5,41.8,88,41.2,88 M167.1,92.3c-0.7,0-1.3-0.5-1.3-1.2
	c0-0.2,0-0.4-0.1-0.7c-0.1-0.7,0.5-1.4,1.2-1.5c0.7-0.1,1.4,0.5,1.5,1.2c0,0.2,0,0.4,0.1,0.7c0.1,0.7-0.5,1.4-1.2,1.4
	C167.1,92.3,167.1,92.3,167.1,92.3 M40.6,92.6c0,0-0.1,0-0.1,0c-0.7-0.1-1.3-0.7-1.2-1.4c0-0.2,0-0.4,0.1-0.7
	c0.1-0.7,0.7-1.3,1.5-1.2c0.7,0.1,1.3,0.7,1.2,1.5c0,0.2,0,0.4-0.1,0.7C41.9,92.1,41.3,92.6,40.6,92.6 M167.3,97
	c-0.7,0-1.3-0.6-1.3-1.3c0-0.2,0-0.4,0-0.7c0-0.7,0.6-1.3,1.3-1.4c0,0,0,0,0,0c0.7,0,1.3,0.6,1.3,1.3c0,0.2,0,0.5,0,0.7
	C168.6,96.4,168.1,97,167.3,97C167.3,97,167.3,97,167.3,97z M40.4,97.3L40.4,97.3c-0.8,0-1.3-0.6-1.3-1.3c0-0.2,0-0.5,0-0.7
	c0-0.7,0.6-1.3,1.4-1.3c0.7,0,1.3,0.6,1.3,1.4c0,0.2,0,0.4,0,0.7C41.7,96.7,41.1,97.3,40.4,97.3 M167.2,101.7
	C167.2,101.7,167.1,101.7,167.2,101.7c-0.8,0-1.4-0.7-1.3-1.4c0-0.2,0-0.4,0-0.7c0-0.7,0.7-1.3,1.4-1.3c0.7,0,1.3,0.7,1.3,1.4
	c0,0.2,0,0.5,0,0.7C168.5,101.2,167.9,101.7,167.2,101.7 M40.5,102c-0.7,0-1.3-0.6-1.3-1.2c0-0.2,0-0.4,0-0.7c0-0.7,0.5-1.4,1.3-1.4
	s1.4,0.5,1.4,1.3c0,0.2,0,0.4,0,0.7C41.9,101.3,41.4,101.9,40.5,102C40.6,102,40.5,102,40.5,102 M166.8,106.4c-0.1,0-0.1,0-0.2,0
	c-0.7-0.1-1.2-0.8-1.1-1.5c0-0.2,0.1-0.4,0.1-0.7c0.1-0.7,0.8-1.3,1.5-1.2c0.7,0.1,1.3,0.8,1.2,1.5c0,0.2-0.1,0.4-0.1,0.7
	C168,105.9,167.4,106.4,166.8,106.4 M41,106.7c-0.7,0-1.2-0.5-1.3-1.2c0-0.2-0.1-0.4-0.1-0.7c-0.1-0.7,0.4-1.4,1.2-1.5
	c0.7-0.1,1.4,0.4,1.5,1.2c0,0.2,0.1,0.4,0.1,0.7c0.1,0.7-0.4,1.4-1.1,1.5C41.1,106.7,41,106.7,41,106.7 M166,111c-0.1,0-0.2,0-0.3,0
	c-0.7-0.2-1.2-0.9-1-1.6c0-0.2,0.1-0.4,0.1-0.6c0.1-0.7,0.9-1.2,1.6-1.1c0.7,0.1,1.2,0.8,1.1,1.6c0,0.2-0.1,0.4-0.1,0.7
	C167.1,110.6,166.6,111,166,111 M41.8,111.3c-0.6,0-1.2-0.4-1.3-1.1c0-0.2-0.1-0.4-0.1-0.7c-0.2-0.7,0.3-1.4,1-1.6
	c0.7-0.2,1.4,0.3,1.6,1.1c0,0.2,0.1,0.4,0.1,0.6c0.2,0.7-0.3,1.4-1,1.6C42,111.3,41.9,111.3,41.8,111.3 M164.8,115.5
	c-0.1,0-0.2,0-0.4-0.1c-0.7-0.2-1.1-0.9-0.9-1.7c0.1-0.2,0.1-0.4,0.2-0.6c0.2-0.7,0.9-1.1,1.6-0.9c0.7,0.2,1.1,0.9,0.9,1.7
	c-0.1,0.2-0.1,0.4-0.2,0.7C165.9,115.2,165.4,115.5,164.8,115.5 M43,115.8c-0.6,0-1.1-0.4-1.3-1c-0.1-0.2-0.1-0.4-0.2-0.7
	c-0.2-0.7,0.2-1.4,0.9-1.7c0.7-0.2,1.5,0.2,1.7,0.9c0.1,0.2,0.1,0.4,0.2,0.6c0.2,0.7-0.2,1.4-0.9,1.7
	C43.2,115.8,43.1,115.8,43,115.8 M163.4,120c-0.1,0-0.3,0-0.5-0.1c-0.7-0.3-1.1-1-0.8-1.7c0.1-0.2,0.1-0.4,0.2-0.6
	c0.2-0.7,1-1.1,1.7-0.8c0.7,0.2,1.1,1,0.8,1.7c-0.1,0.2-0.2,0.4-0.2,0.6C164.4,119.7,163.9,120,163.4,120 M44.4,120.2
	c-0.5,0-1-0.3-1.2-0.9c-0.1-0.2-0.2-0.4-0.2-0.6c-0.2-0.7,0.1-1.5,0.8-1.7c0.7-0.2,1.5,0.1,1.7,0.8c0.1,0.2,0.2,0.4,0.2,0.6
	c0.3,0.7-0.1,1.5-0.8,1.7C44.8,120.2,44.6,120.2,44.4,120.2 M161.6,124.3c-0.2,0-0.4,0-0.6-0.1c-0.7-0.3-1-1.1-0.7-1.8
	c0.1-0.2,0.2-0.4,0.3-0.6c0.3-0.7,1.1-1,1.8-0.7c0.7,0.3,1,1.1,0.7,1.8c-0.1,0.2-0.2,0.4-0.3,0.6C162.6,124,162.1,124.3,161.6,124.3
	 M46.2,124.6c-0.5,0-1-0.3-1.2-0.8c-0.1-0.2-0.2-0.4-0.3-0.6c-0.3-0.7,0-1.5,0.7-1.8c0.7-0.3,1.5,0,1.8,0.7c0.1,0.2,0.2,0.4,0.3,0.6
	c0.3,0.7,0,1.5-0.7,1.8C46.6,124.5,46.4,124.6,46.2,124.6 M159.5,128.5c-0.2,0-0.4-0.1-0.6-0.2c-0.6-0.4-0.9-1.2-0.5-1.8
	c0.1-0.2,0.2-0.4,0.3-0.6c0.4-0.7,1.2-0.9,1.8-0.6s0.9,1.2,0.6,1.8c-0.1,0.2-0.2,0.4-0.3,0.6C160.4,128.2,159.9,128.5,159.5,128.5
	 M48.4,128.8c-0.5,0-0.9-0.2-1.2-0.7c-0.1-0.2-0.2-0.4-0.3-0.6c-0.3-0.7-0.1-1.5,0.5-1.8c0.7-0.3,1.5-0.1,1.8,0.5
	c0.1,0.2,0.2,0.4,0.3,0.6c0.4,0.7,0.1,1.5-0.5,1.8C48.8,128.7,48.6,128.8,48.4,128.8 M157.1,132.5c-0.2,0-0.5-0.1-0.7-0.2
	c-0.6-0.4-0.8-1.2-0.4-1.9c0.1-0.2,0.2-0.4,0.4-0.6c0.4-0.6,1.2-0.8,1.9-0.4c0.6,0.4,0.8,1.2,0.4,1.9c-0.1,0.2-0.2,0.4-0.4,0.6
	C157.9,132.3,157.5,132.5,157.1,132.5 M50.8,132.8c-0.4,0-0.9-0.2-1.1-0.6c-0.1-0.2-0.2-0.4-0.4-0.6c-0.4-0.6-0.2-1.4,0.4-1.9
	c0.6-0.4,1.5-0.2,1.8,0.4c0.1,0.2,0.2,0.4,0.4,0.6c0.4,0.6,0.2,1.4-0.4,1.9C51.3,132.7,51.1,132.8,50.8,132.8 M154.4,136.3
	c-0.3,0-0.6-0.1-0.8-0.3c-0.6-0.4-0.7-1.3-0.2-1.9c0.1-0.2,0.3-0.4,0.4-0.5c0.4-0.6,1.3-0.7,1.9-0.3c0.6,0.4,0.7,1.3,0.3,1.9
	c-0.1,0.2-0.3,0.4-0.4,0.6C155.2,136.1,154.8,136.3,154.4,136.3 M53.5,136.6c-0.4,0-0.8-0.2-1.1-0.5c-0.1-0.2-0.3-0.4-0.4-0.5
	c-0.5-0.6-0.3-1.4,0.3-1.9c0.6-0.4,1.4-0.3,1.9,0.3c0.1,0.2,0.3,0.4,0.4,0.5c0.5,0.6,0.3,1.4-0.2,1.9
	C54.1,136.5,53.8,136.6,53.5,136.6 M151.4,139.9c-0.3,0-0.6-0.1-0.9-0.3c-0.6-0.5-0.6-1.3-0.1-1.9c0.1-0.2,0.3-0.3,0.4-0.5
	c0.5-0.6,1.3-0.6,1.9-0.1c0.6,0.5,0.6,1.3,0.1,1.9c-0.1,0.2-0.3,0.3-0.4,0.5C152.1,139.8,151.8,139.9,151.4,139.9 M56.5,140.2
	c-0.4,0-0.7-0.1-1-0.4c-0.2-0.2-0.3-0.3-0.5-0.5c-0.5-0.6-0.4-1.4,0.1-1.9s1.4-0.4,1.9,0.1c0.1,0.2,0.3,0.3,0.4,0.5
	c0.5,0.6,0.5,1.4-0.1,1.9C57.2,140.1,56.9,140.2,56.5,140.2 M148.1,143.3c-0.4,0-0.7-0.1-1-0.4c-0.5-0.5-0.5-1.4,0-1.9
	c0.2-0.1,0.3-0.3,0.5-0.5c0.5-0.5,1.4-0.5,1.9,0s0.5,1.4,0,1.9c-0.2,0.2-0.3,0.3-0.5,0.5C148.8,143.2,148.5,143.3,148.1,143.3
	 M59.8,143.6c-0.3,0-0.7-0.1-0.9-0.4c-0.2-0.2-0.3-0.3-0.5-0.5c-0.5-0.5-0.5-1.4,0-1.9c0.5-0.5,1.4-0.5,1.9,0
	c0.2,0.1,0.3,0.3,0.5,0.5c0.5,0.5,0.5,1.4,0,1.9C60.5,143.4,60.1,143.6,59.8,143.6 M144.7,146.5c-0.4,0-0.8-0.2-1-0.5
	c-0.5-0.6-0.4-1.4,0.2-1.9c0.2-0.1,0.3-0.3,0.5-0.4c0.6-0.5,1.4-0.4,1.9,0.1s0.4,1.4-0.1,1.9c-0.2,0.1-0.4,0.3-0.5,0.4
	C145.3,146.4,145,146.5,144.7,146.5 M63.3,146.7c-0.3,0-0.6-0.1-0.9-0.3c-0.2-0.1-0.3-0.3-0.5-0.4c-0.6-0.5-0.6-1.3-0.2-1.9
	c0.5-0.6,1.3-0.6,1.9-0.1c0.2,0.1,0.3,0.3,0.5,0.4c0.6,0.5,0.7,1.3,0.2,1.9C64,146.5,63.7,146.7,63.3,146.7 M141,149.4
	c-0.4,0-0.8-0.2-1.1-0.6c-0.4-0.6-0.3-1.4,0.3-1.9c0.2-0.1,0.4-0.3,0.5-0.4c0.6-0.4,1.4-0.3,1.9,0.3s0.3,1.4-0.3,1.9
	c-0.2,0.1-0.4,0.3-0.6,0.4C141.5,149.3,141.2,149.4,141,149.4 M67,149.6c-0.3,0-0.5-0.1-0.8-0.2c-0.2-0.1-0.4-0.3-0.6-0.4
	c-0.6-0.4-0.7-1.3-0.3-1.9c0.4-0.6,1.3-0.7,1.9-0.3c0.2,0.1,0.3,0.3,0.5,0.4c0.6,0.4,0.7,1.3,0.3,1.9
	C67.8,149.4,67.4,149.6,67,149.6 M137.1,152c-0.4,0-0.9-0.2-1.1-0.6c-0.4-0.6-0.2-1.5,0.4-1.8c0.2-0.1,0.4-0.2,0.6-0.4
	c0.6-0.4,1.4-0.2,1.9,0.4c0.4,0.6,0.2,1.4-0.4,1.9c-0.2,0.1-0.4,0.2-0.6,0.4C137.6,151.9,137.3,152,137.1,152 M70.9,152.1
	c-0.2,0-0.5-0.1-0.7-0.2c-0.2-0.1-0.4-0.2-0.6-0.4c-0.6-0.4-0.8-1.2-0.4-1.9s1.2-0.8,1.8-0.4c0.2,0.1,0.4,0.2,0.6,0.3
	c0.6,0.4,0.8,1.2,0.4,1.8C71.8,151.9,71.3,152.1,70.9,152.1 M133,154.3c-0.5,0-0.9-0.3-1.2-0.7c-0.3-0.7-0.1-1.5,0.6-1.8
	c0.2-0.1,0.4-0.2,0.6-0.3c0.6-0.4,1.5-0.1,1.8,0.6c0.4,0.6,0.1,1.5-0.6,1.8c-0.2,0.1-0.4,0.2-0.6,0.3
	C133.4,154.2,133.2,154.3,133,154.3 M75,154.4c-0.2,0-0.4-0.1-0.6-0.1c-0.2-0.1-0.4-0.2-0.6-0.3c-0.7-0.3-0.9-1.1-0.6-1.8
	c0.3-0.7,1.2-0.9,1.8-0.6c0.2,0.1,0.4,0.2,0.6,0.3c0.7,0.3,0.9,1.1,0.6,1.8C75.9,154.2,75.5,154.4,75,154.4 M128.8,156.3
	c-0.5,0-1-0.3-1.2-0.8c-0.3-0.7,0-1.5,0.7-1.8c0.2-0.1,0.4-0.2,0.6-0.3c0.7-0.3,1.5,0,1.8,0.7c0.3,0.7,0,1.5-0.7,1.8
	c-0.2,0.1-0.4,0.2-0.6,0.3C129.1,156.2,128.9,156.3,128.8,156.3 M79.2,156.4c-0.2,0-0.3,0-0.5-0.1c-0.2-0.1-0.4-0.2-0.6-0.3
	c-0.7-0.3-1-1.1-0.7-1.8s1.1-1,1.8-0.7c0.2,0.1,0.4,0.2,0.6,0.3c0.7,0.3,1,1.1,0.7,1.8C80.2,156.1,79.7,156.4,79.2,156.4 M124.4,158
	c-0.6,0-1.1-0.4-1.3-0.9c-0.2-0.7,0.1-1.5,0.8-1.7c0.2-0.1,0.4-0.1,0.6-0.2c0.7-0.2,1.5,0.1,1.7,0.8c0.2,0.7-0.1,1.5-0.8,1.7
	c-0.2,0.1-0.4,0.1-0.7,0.2C124.7,157.9,124.5,158,124.4,158 M83.6,158.1c-0.1,0-0.3,0-0.4-0.1c-0.2-0.1-0.4-0.1-0.7-0.2
	c-0.7-0.2-1.1-1-0.8-1.7c0.2-0.7,1-1.1,1.7-0.8c0.2,0.1,0.4,0.1,0.6,0.2c0.7,0.2,1.1,1,0.8,1.7C84.7,157.7,84.2,158.1,83.6,158.1
	 M119.9,159.3c-0.6,0-1.1-0.4-1.3-1c-0.2-0.7,0.2-1.4,1-1.6c0.2-0.1,0.4-0.1,0.6-0.2c0.7-0.2,1.4,0.2,1.6,0.9s-0.2,1.4-0.9,1.6
	c-0.2,0.1-0.4,0.1-0.7,0.2C120.1,159.3,120,159.3,119.9,159.3 M88.1,159.4c-0.1,0-0.2,0-0.3,0c-0.2-0.1-0.4-0.1-0.7-0.2
	c-0.7-0.2-1.1-0.9-0.9-1.6c0.2-0.7,0.9-1.1,1.6-0.9c0.2,0.1,0.4,0.1,0.6,0.2c0.7,0.2,1.2,0.9,1,1.6C89.2,159,88.7,159.4,88.1,159.4
	 M115.3,160.3c-0.6,0-1.2-0.4-1.3-1.1c-0.1-0.7,0.3-1.4,1.1-1.6c0.2,0,0.4-0.1,0.6-0.1c0.7-0.1,1.4,0.3,1.6,1.1s-0.3,1.4-1.1,1.6
	c-0.2,0-0.4,0.1-0.7,0.1C115.5,160.3,115.4,160.3,115.3,160.3 M92.7,160.4c-0.1,0-0.2,0-0.2,0c-0.2,0-0.4-0.1-0.7-0.1
	c-0.7-0.1-1.2-0.8-1.1-1.6c0.1-0.7,0.8-1.2,1.6-1.1c0.2,0,0.4,0.1,0.6,0.1c0.7,0.1,1.2,0.8,1.1,1.6
	C93.9,159.9,93.3,160.4,92.7,160.4 M110.7,161c-0.7,0-1.3-0.5-1.3-1.2c-0.1-0.7,0.4-1.4,1.2-1.5c0.2,0,0.4-0.1,0.7-0.1
	c0.7-0.1,1.4,0.4,1.5,1.2s-0.4,1.4-1.2,1.5c-0.2,0-0.4,0.1-0.7,0.1C110.8,161,110.7,161,110.7,161 M97.3,161c-0.1,0-0.1,0-0.1,0
	c-0.2,0-0.4-0.1-0.7-0.1c-0.7-0.1-1.3-0.8-1.2-1.5c0.1-0.7,0.8-1.3,1.5-1.2c0.2,0,0.4,0.1,0.7,0.1c0.7,0.1,1.3,0.7,1.2,1.5
	C98.6,160.5,98,161,97.3,161 M106,161.3c-0.7,0-1.3-0.6-1.3-1.3c0-0.7,0.6-1.4,1.3-1.4c0.2,0,0.4,0,0.7,0c0.7,0,1.4,0.5,1.4,1.3
	c0,0.7-0.5,1.4-1.3,1.4C106.5,161.3,106.3,161.3,106,161.3C106,161.3,106,161.3,106,161.3 M102,161.3C102,161.3,102,161.3,102,161.3
	c-0.3,0-0.5,0-0.7,0c-0.7,0-1.3-0.6-1.3-1.4c0-0.7,0.7-1.3,1.4-1.3c0.2,0,0.4,0,0.7,0c0.7,0,1.3,0.6,1.3,1.4
	C103.3,160.8,102.7,161.3,102,161.3 M103.9,13.1c-45.7,0-82.8,37.1-82.8,82.8s37.1,82.8,82.8,82.8s82.8-37.1,82.8-82.8
	S149.5,13.1,103.9,13.1 M103.9,180.7c-11.4,0-22.6-2.2-33-6.7c-5-2.1-9.9-4.8-14.4-7.8c-4.5-3-8.7-6.5-12.5-10.4
	c-3.8-3.8-7.3-8.1-10.4-12.6c-3.1-4.5-5.7-9.4-7.8-14.4c-4.4-10.5-6.7-21.6-6.7-33s2.2-22.6,6.7-33c2.1-5,4.8-9.9,7.8-14.4
	c3-4.5,6.5-8.7,10.3-12.5c3.8-3.8,8.1-7.3,12.5-10.4c4.5-3.1,9.4-5.7,14.4-7.8c10.4-4.4,21.6-6.7,33-6.7s22.6,2.2,33,6.7
	c5,2.1,9.9,4.8,14.4,7.8c4.5,3,8.7,6.5,12.6,10.4c3.8,3.8,7.3,8.1,10.4,12.5c3.1,4.5,5.7,9.4,7.8,14.4c4.4,10.4,6.7,21.6,6.7,33
	s-2.2,22.6-6.7,33c-2.1,5-4.8,9.9-7.8,14.4c-3,4.5-6.5,8.7-10.4,12.6c-3.8,3.8-8.1,7.3-12.6,10.4c-4.5,3.1-9.4,5.7-14.4,7.8
	C126.4,178.4,115.3,180.7,103.9,180.7"/>
</svg>
