<?xml version="1.0" encoding="UTF-8"?>
<!--Generator: Apple Native CoreSVG 232.5-->
<!DOCTYPE svg
PUBLIC "-//W3C//DTD SVG 1.1//EN"
       "http://www.w3.org/Graphics/SVG/1.1/DTD/svg11.dtd">
<svg version="1.1" xmlns="http://www.w3.org/2000/svg" xmlns:xlink="http://www.w3.org/1999/xlink" width="3300" height="2200">
 <!--glyph: "", point size: 100.0, font version: "19.0d7e1", template writer version: "128"-->
 <style>.monochrome-0 {-sfsymbols-motion-group:3;-sfsymbols-indices:0}
.monochrome-1 {opacity:0.0;-sfsymbols-clear-behind:true;-sfsymbols-motion-group:2;-sfsymbols-indices:1}
.monochrome-2 {-sfsymbols-motion-group:2;-sfsymbols-indices:2}
.monochrome-3 {opacity:0.0;-sfsymbols-clear-behind:true;-sfsymbols-motion-group:1;-sfsymbols-indices:3}
.monochrome-4 {-sfsymbols-motion-group:1;-sfsymbols-indices:4}
.monochrome-5 {opacity:0.0;-sfsymbols-clear-behind:true;-sfsymbols-motion-group:0;-sfsymbols-always-pulses:true}

.multicolor-0:tintColor {-sfsymbols-motion-group:3;-sfsymbols-indices:0}
.multicolor-1:tintColor {opacity:0.0;-sfsymbols-clear-behind:true;-sfsymbols-motion-group:2;-sfsymbols-indices:1}
.multicolor-2:tintColor {-sfsymbols-motion-group:2;-sfsymbols-indices:2}
.multicolor-3:tintColor {opacity:0.0;-sfsymbols-clear-behind:true;-sfsymbols-motion-group:1;-sfsymbols-indices:3}
.multicolor-4:tintColor {-sfsymbols-motion-group:1;-sfsymbols-indices:4}
.multicolor-5:white {-sfsymbols-motion-group:0;-sfsymbols-always-pulses:true}

.hierarchical-0:tertiary {-sfsymbols-motion-group:3;-sfsymbols-indices:0}
.hierarchical-1:primary {opacity:0.0;-sfsymbols-clear-behind:true;-sfsymbols-motion-group:2;-sfsymbols-indices:1}
.hierarchical-2:tertiary {-sfsymbols-motion-group:2;-sfsymbols-indices:2}
.hierarchical-3:primary {opacity:0.0;-sfsymbols-clear-behind:true;-sfsymbols-motion-group:1;-sfsymbols-indices:3}
.hierarchical-4:tertiary {-sfsymbols-motion-group:1;-sfsymbols-indices:4}
.hierarchical-5:primary {-sfsymbols-motion-group:0}

.shapeGroupLayer-0 {-sfsymbols-fill-action:draw;-sfsymbols-indices:5}
.shapeGroupLayer-1 {-sfsymbols-fill-action:erase;-sfsymbols-indices:6}

.SFSymbolsPreviewWireframe {fill:none;opacity:1.0;stroke:black;stroke-width:0.5}
</style>
 <g id="Notes">
  <rect height="2200" id="artboard" style="fill:white;opacity:1" width="3300" x="0" y="0"/>
  <line style="fill:none;stroke:black;opacity:1;stroke-width:0.5;" x1="263" x2="3036" y1="292" y2="292"/>
  <text style="stroke:none;fill:black;font-family:sans-serif;font-size:13;font-weight:bold;" transform="matrix(1 0 0 1 263 322)">Weight/Scale Variations</text>
  <text style="stroke:none;fill:black;font-family:sans-serif;font-size:13;text-anchor:middle;" transform="matrix(1 0 0 1 559.711 322)">Ultralight</text>
  <text style="stroke:none;fill:black;font-family:sans-serif;font-size:13;text-anchor:middle;" transform="matrix(1 0 0 1 856.422 322)">Thin</text>
  <text style="stroke:none;fill:black;font-family:sans-serif;font-size:13;text-anchor:middle;" transform="matrix(1 0 0 1 1153.13 322)">Light</text>
  <text style="stroke:none;fill:black;font-family:sans-serif;font-size:13;text-anchor:middle;" transform="matrix(1 0 0 1 1449.84 322)">Regular</text>
  <text style="stroke:none;fill:black;font-family:sans-serif;font-size:13;text-anchor:middle;" transform="matrix(1 0 0 1 1746.56 322)">Medium</text>
  <text style="stroke:none;fill:black;font-family:sans-serif;font-size:13;text-anchor:middle;" transform="matrix(1 0 0 1 2043.27 322)">Semibold</text>
  <text style="stroke:none;fill:black;font-family:sans-serif;font-size:13;text-anchor:middle;" transform="matrix(1 0 0 1 2339.98 322)">Bold</text>
  <text style="stroke:none;fill:black;font-family:sans-serif;font-size:13;text-anchor:middle;" transform="matrix(1 0 0 1 2636.69 322)">Heavy</text>
  <text style="stroke:none;fill:black;font-family:sans-serif;font-size:13;text-anchor:middle;" transform="matrix(1 0 0 1 2933.4 322)">Black</text>
  <line style="fill:none;stroke:black;opacity:1;stroke-width:0.5;" x1="263" x2="3036" y1="1903" y2="1903"/>
  <g transform="matrix(0.2 0 0 0.2 263 1933)">
   <path d="m46.2402 4.15039c21.5332 0 39.4531-17.8711 39.4531-39.4043s-17.9688-39.4043-39.502-39.4043c-21.4844 0-39.3555 17.8711-39.3555 39.4043s17.9199 39.4043 39.4043 39.4043Zm0-7.42188c-17.7246 0-31.8848-14.209-31.8848-31.9824s14.1113-31.9824 31.8359-31.9824c17.7734 0 32.0312 14.209 32.0312 31.9824s-14.209 31.9824-31.9824 31.9824Zm-17.9688-31.9824c0 2.14844 1.51367 3.61328 3.75977 3.61328h10.498v10.5957c0 2.19727 1.46484 3.71094 3.61328 3.71094 2.24609 0 3.71094-1.51367 3.71094-3.71094v-10.5957h10.5957c2.19727 0 3.71094-1.46484 3.71094-3.61328 0-2.19727-1.51367-3.71094-3.71094-3.71094h-10.5957v-10.5469c0-2.24609-1.46484-3.75977-3.71094-3.75977-2.14844 0-3.61328 1.51367-3.61328 3.75977v10.5469h-10.498c-2.24609 0-3.75977 1.51367-3.75977 3.71094Z"/>
  </g>
  <g transform="matrix(0.2 0 0 0.2 281.506 1933)">
   <path d="m58.5449 14.5508c27.2461 0 49.8047-22.6074 49.8047-49.8047 0-27.2461-22.6074-49.8047-49.8535-49.8047-27.1973 0-49.7559 22.5586-49.7559 49.8047 0 27.1973 22.6074 49.8047 49.8047 49.8047Zm0-8.30078c-23.0469 0-41.4551-18.457-41.4551-41.5039s18.3594-41.5039 41.4062-41.5039 41.5527 18.457 41.5527 41.5039-18.457 41.5039-41.5039 41.5039Zm-22.6562-41.5039c0 2.39258 1.66016 4.00391 4.15039 4.00391h14.3555v14.4043c0 2.44141 1.66016 4.15039 4.05273 4.15039 2.44141 0 4.15039-1.66016 4.15039-4.15039v-14.4043h14.4043c2.44141 0 4.15039-1.61133 4.15039-4.00391 0-2.44141-1.70898-4.15039-4.15039-4.15039h-14.4043v-14.3555c0-2.49023-1.70898-4.19922-4.15039-4.19922-2.39258 0-4.05273 1.70898-4.05273 4.19922v14.3555h-14.3555c-2.49023 0-4.15039 1.70898-4.15039 4.15039Z"/>
  </g>
  <g transform="matrix(0.2 0 0 0.2 304.924 1933)">
   <path d="m74.8535 28.3203c34.8145 0 63.623-28.8086 63.623-63.5742 0-34.8145-28.8574-63.623-63.6719-63.623-34.7656 0-63.5254 28.8086-63.5254 63.623 0 34.7656 28.8086 63.5742 63.5742 63.5742Zm0-9.08203c-30.1758 0-54.4434-24.3164-54.4434-54.4922 0-30.2246 24.2188-54.4922 54.3945-54.4922 30.2246 0 54.541 24.2676 54.541 54.4922 0 30.1758-24.2676 54.4922-54.4922 54.4922Zm-28.8574-54.4922c0 2.58789 1.85547 4.39453 4.58984 4.39453h19.7266v19.7754c0 2.68555 1.85547 4.58984 4.44336 4.58984 2.68555 0 4.54102-1.85547 4.54102-4.58984v-19.7754h19.7754c2.68555 0 4.58984-1.80664 4.58984-4.39453 0-2.73438-1.85547-4.58984-4.58984-4.58984h-19.7754v-19.7266c0-2.73438-1.85547-4.63867-4.54102-4.63867-2.58789 0-4.44336 1.9043-4.44336 4.63867v19.7266h-19.7266c-2.73438 0-4.58984 1.85547-4.58984 4.58984Z"/>
  </g>
  <text style="stroke:none;fill:black;font-family:sans-serif;font-size:13;font-weight:bold;" transform="matrix(1 0 0 1 263 1953)">Design Variations</text>
  <text style="stroke:none;fill:black;font-family:sans-serif;font-size:13;" transform="matrix(1 0 0 1 263 1971)">Symbols are supported in up to nine weights and three scales.</text>
  <text style="stroke:none;fill:black;font-family:sans-serif;font-size:13;" transform="matrix(1 0 0 1 263 1989)">For optimal layout with text and other symbols, vertically align</text>
  <text style="stroke:none;fill:black;font-family:sans-serif;font-size:13;" transform="matrix(1 0 0 1 263 2007)">symbols with the adjacent text.</text>
  <line style="fill:none;stroke:#00AEEF;stroke-width:0.5;opacity:1.0;" x1="776" x2="776" y1="1919" y2="1933"/>
  <g transform="matrix(0.2 0 0 0.2 776 1933)">
   <path d="m16.5527 0.78125c2.58789 0 3.85742-0.976562 4.78516-3.71094l6.29883-17.2363h28.8086l6.29883 17.2363c0.927734 2.73438 2.19727 3.71094 4.73633 3.71094 2.58789 0 4.24805-1.5625 4.24805-4.00391 0-0.830078-0.146484-1.61133-0.537109-2.63672l-22.9004-60.9863c-1.12305-2.97852-3.125-4.49219-6.25-4.49219-3.02734 0-5.07812 1.46484-6.15234 4.44336l-22.9004 61.084c-0.390625 1.02539-0.537109 1.80664-0.537109 2.63672 0 2.44141 1.5625 3.95508 4.10156 3.95508Zm13.4766-28.3691 11.8652-32.8613h0.244141l11.8652 32.8613Z"/>
  </g>
  <line style="fill:none;stroke:#00AEEF;stroke-width:0.5;opacity:1.0;" x1="792.836" x2="792.836" y1="1919" y2="1933"/>
  <text style="stroke:none;fill:black;font-family:sans-serif;font-size:13;font-weight:bold;" transform="matrix(1 0 0 1 776 1953)">Margins</text>
  <text style="stroke:none;fill:black;font-family:sans-serif;font-size:13;" transform="matrix(1 0 0 1 776 1971)">Leading and trailing margins on the left and right side of each symbol</text>
  <text style="stroke:none;fill:black;font-family:sans-serif;font-size:13;" transform="matrix(1 0 0 1 776 1989)">can be adjusted by modifying the x-location of the margin guidelines.</text>
  <text style="stroke:none;fill:black;font-family:sans-serif;font-size:13;" transform="matrix(1 0 0 1 776 2007)">Modifications are automatically applied proportionally to all</text>
  <text style="stroke:none;fill:black;font-family:sans-serif;font-size:13;" transform="matrix(1 0 0 1 776 2025)">scales and weights.</text>
  <g transform="matrix(0.2 0 0 0.2 1289 1933)">
   <path d="m14.209 9.32617 8.49609 8.54492c4.29688 4.3457 9.22852 4.05273 13.8672-1.07422l53.4668-58.9355-4.83398-4.88281-53.0762 58.3984c-1.75781 2.00195-3.41797 2.49023-5.76172 0.146484l-5.85938-5.81055c-2.34375-2.29492-1.80664-4.00391 0.195312-5.81055l57.373-54.0039-4.88281-4.83398-57.959 54.4434c-4.93164 4.58984-5.32227 9.47266-1.02539 13.8184Zm32.0801-90.9668c-2.09961 2.05078-2.24609 4.93164-1.07422 6.88477 1.17188 1.80664 3.4668 2.97852 6.68945 2.14844 7.32422-1.70898 14.9414-2.00195 22.0703 2.68555l-2.92969 7.27539c-1.70898 4.15039-0.830078 7.08008 1.85547 9.81445l11.4746 11.5723c2.44141 2.44141 4.49219 2.53906 7.32422 2.05078l5.32227-0.976562 3.32031 3.36914-0.195312 2.7832c-0.195312 2.49023 0.439453 4.39453 2.88086 6.78711l3.80859 3.71094c2.39258 2.39258 5.46875 2.53906 7.8125 0.195312l14.5508-14.5996c2.34375-2.34375 2.24609-5.32227-0.146484-7.71484l-3.85742-3.80859c-2.39258-2.39258-4.24805-3.17383-6.64062-2.97852l-2.88086 0.244141-3.22266-3.17383 1.2207-5.61523c0.634766-2.83203-0.146484-5.0293-3.07617-7.95898l-10.9863-10.9375c-16.6992-16.6016-38.8672-16.2109-53.3203-1.75781Zm7.4707 1.85547c12.1582-8.88672 28.6133-7.37305 39.7461 3.75977l12.1582 12.0605c1.17188 1.17188 1.36719 2.09961 1.02539 3.80859l-1.61133 7.42188 7.51953 7.42188 4.93164-0.292969c1.26953-0.0488281 1.66016 0.0488281 2.63672 1.02539l2.88086 2.88086-12.207 12.207-2.88086-2.88086c-0.976562-0.976562-1.12305-1.36719-1.07422-2.68555l0.341797-4.88281-7.4707-7.42188-7.61719 1.26953c-1.61133 0.341797-2.34375 0.195312-3.56445-0.976562l-10.0098-10.0098c-1.26953-1.17188-1.41602-2.00195-0.634766-3.85742l4.39453-10.4492c-7.8125-7.27539-17.9688-10.4004-28.125-7.42188-0.78125 0.195312-1.07422-0.439453-0.439453-0.976562Z"/>
  </g>
  <text style="stroke:none;fill:black;font-family:sans-serif;font-size:13;font-weight:bold;" transform="matrix(1 0 0 1 1289 1953)">Exporting</text>
  <text style="stroke:none;fill:black;font-family:sans-serif;font-size:13;" transform="matrix(1 0 0 1 1289 1971)">Symbols should be outlined when exporting to ensure the</text>
  <text style="stroke:none;fill:black;font-family:sans-serif;font-size:13;" transform="matrix(1 0 0 1 1289 1989)">design is preserved when submitting to Xcode.</text>
  <text id="template-version" style="stroke:none;fill:black;font-family:sans-serif;font-size:13;text-anchor:end;" transform="matrix(1 0 0 1 3036 1933)">Template v.5.0</text>
  <text style="stroke:none;fill:black;font-family:sans-serif;font-size:13;text-anchor:end;" transform="matrix(1 0 0 1 3036 1951)">Requires Xcode 15 or greater</text>
  <text id="descriptive-name" style="stroke:none;fill:black;font-family:sans-serif;font-size:13;text-anchor:end;" transform="matrix(1 0 0 1 3036 1969)">Generated from square.stack.fill</text>
  <text style="stroke:none;fill:black;font-family:sans-serif;font-size:13;text-anchor:end;" transform="matrix(1 0 0 1 3036 1987)">Typeset at 100.0 points</text>
  <text style="stroke:none;fill:black;font-family:sans-serif;font-size:13;" transform="matrix(1 0 0 1 263 726)">Small</text>
  <text style="stroke:none;fill:black;font-family:sans-serif;font-size:13;" transform="matrix(1 0 0 1 263 1156)">Medium</text>
  <text style="stroke:none;fill:black;font-family:sans-serif;font-size:13;" transform="matrix(1 0 0 1 263 1586)">Large</text>
 </g>
 <g id="Guides">
  <g id="H-reference" style="fill:#27AAE1;stroke:none;" transform="matrix(1 0 0 1 339 696)">
   <path d="M0.993654 0L3.63775 0L29.3281-67.1323L30.0303-67.1323L30.0303-70.459L28.1226-70.459ZM11.6885-24.4799L46.9815-24.4799L46.2315-26.7285L12.4385-26.7285ZM55.1196 0L57.7637 0L30.6382-70.459L29.4326-70.459L29.4326-67.1323Z"/>
  </g>
  <line id="Baseline-S" style="fill:none;stroke:#27AAE1;opacity:1;stroke-width:0.5;" x1="263" x2="3036" y1="696" y2="696"/>
  <line id="Capline-S" style="fill:none;stroke:#27AAE1;opacity:1;stroke-width:0.5;" x1="263" x2="3036" y1="625.541" y2="625.541"/>
  <g id="H-reference" style="fill:#27AAE1;stroke:none;" transform="matrix(1 0 0 1 339 1126)">
   <path d="M0.993654 0L3.63775 0L29.3281-67.1323L30.0303-67.1323L30.0303-70.459L28.1226-70.459ZM11.6885-24.4799L46.9815-24.4799L46.2315-26.7285L12.4385-26.7285ZM55.1196 0L57.7637 0L30.6382-70.459L29.4326-70.459L29.4326-67.1323Z"/>
  </g>
  <line id="Baseline-M" style="fill:none;stroke:#27AAE1;opacity:1;stroke-width:0.5;" x1="263" x2="3036" y1="1126" y2="1126"/>
  <line id="Capline-M" style="fill:none;stroke:#27AAE1;opacity:1;stroke-width:0.5;" x1="263" x2="3036" y1="1055.54" y2="1055.54"/>
  <g id="H-reference" style="fill:#27AAE1;stroke:none;" transform="matrix(1 0 0 1 339 1556)">
   <path d="M0.993654 0L3.63775 0L29.3281-67.1323L30.0303-67.1323L30.0303-70.459L28.1226-70.459ZM11.6885-24.4799L46.9815-24.4799L46.2315-26.7285L12.4385-26.7285ZM55.1196 0L57.7637 0L30.6382-70.459L29.4326-70.459L29.4326-67.1323Z"/>
  </g>
  <line id="Baseline-L" style="fill:none;stroke:#27AAE1;opacity:1;stroke-width:0.5;" x1="263" x2="3036" y1="1556" y2="1556"/>
  <line id="Capline-L" style="fill:none;stroke:#27AAE1;opacity:1;stroke-width:0.5;" x1="263" x2="3036" y1="1485.54" y2="1485.54"/>
  <line id="left-margin-Ultralight-S" style="fill:none;stroke:#00AEEF;stroke-width:0.5;opacity:1.0;" x1="518.75" x2="518.75" y1="600.785" y2="720.121"/>
  <line id="right-margin-Ultralight-S" style="fill:none;stroke:#00AEEF;stroke-width:0.5;opacity:1.0;" x1="600.672" x2="600.672" y1="600.785" y2="720.121"/>
  <line id="left-margin-Regular-S" style="fill:none;stroke:#00AEEF;stroke-width:0.5;opacity:1.0;" x1="1406.05" x2="1406.05" y1="600.785" y2="720.121"/>
  <line id="right-margin-Regular-S" style="fill:none;stroke:#00AEEF;stroke-width:0.5;opacity:1.0;" x1="1493.64" x2="1493.64" y1="600.785" y2="720.121"/>
  <line id="left-margin-Black-S" style="fill:none;stroke:#00AEEF;stroke-width:0.5;opacity:1.0;" x1="2886.96" x2="2886.96" y1="600.785" y2="720.121"/>
  <line id="right-margin-Black-S" style="fill:none;stroke:#00AEEF;stroke-width:0.5;opacity:1.0;" x1="2979.84" x2="2979.84" y1="600.785" y2="720.121"/>
 </g>
 <g id="Symbols">
  <g id="Black-S" transform="matrix(1 0 0 1 2886.96 696)">
   <path class="SFSymbolsPreviewWireframe" d="M33.9355-44.0918L58.9355-44.0918C63.0859-44.0918 65.625-46.6797 65.625-50.7812L65.625-78.4668C65.625-82.6172 63.0859-85.1562 58.9355-85.1562L33.9355-85.1562C29.7852-85.1562 27.2461-82.6172 27.2461-78.4668L27.2461-50.7812C27.2461-46.6797 29.7852-44.0918 33.9355-44.0918ZM28.5645-12.9395L64.3066-12.9395C72.998-12.9395 79.0527-18.9941 79.0527-27.6855L79.0527-63.8672C79.0527-72.5586 72.998-78.6133 64.3066-78.6133L28.5645-78.6133C19.873-78.6133 13.8184-72.5586 13.8184-63.8672L13.8184-27.6855C13.8184-18.9941 19.873-12.9395 28.5645-12.9395ZM28.5645-19.043L64.3066-19.043C69.6289-19.043 72.9492-22.3633 72.9492-27.6855L72.9492-63.8672C72.9492-69.1895 69.6289-72.5098 64.3066-72.5098L28.5645-72.5098C23.2422-72.5098 19.9219-69.1895 19.9219-63.8672L19.9219-27.6855C19.9219-22.3633 23.2422-19.043 28.5645-19.043ZM25 21.0938L67.8711 21.0938C81.1035 21.0938 89.6973 12.5 89.6973-0.732422L89.6973-43.6035C89.6973-56.8359 81.1035-65.4297 67.8711-65.4297L25-65.4297C11.7676-65.4297 3.17383-56.8359 3.17383-43.6035L3.17383-0.732422C3.17383 12.5 11.7676 21.0938 25 21.0938ZM25 14.502L67.8711 14.502C77.4414 14.502 83.1055 8.83789 83.1055-0.732422L83.1055-43.6035C83.1055-53.1738 77.4414-58.8379 67.8711-58.8379L25-58.8379C15.4297-58.8379 9.76562-53.1738 9.76562-43.6035L9.76562-0.732422C9.76562 8.83789 15.4297 14.502 25 14.502ZM37.3155-6.39261L55.5559-6.39261C59.5619-6.39261 61.9657-8.79157 61.9657-12.8049L61.9657-31.0393C61.9657-35.0527 59.5619-37.4516 55.5559-37.4516L37.3155-37.4516C33.3087-37.4516 30.9057-35.0479 30.9057-31.0393L30.9057-12.8049C30.9057-8.79638 33.3087-6.39261 37.3155-6.39261ZM46.677-14.2839C44.4195-14.2839 43.1405-15.7172 43.1405-18.1781L43.1405-24.334L42.1218-24.334C40.2871-24.334 39.2345-25.2957 39.2345-26.9276C39.2345-28.5521 40.2871-29.5194 42.1218-29.5194L51.2055-29.5194C53.041-29.5194 54.0937-28.5521 54.0937-26.9276C54.0937-25.2957 53.041-24.334 51.2055-24.334L50.2118-24.334L50.2118-18.1781C50.2118-15.7417 48.9084-14.2839 46.677-14.2839Z"/>
  </g>
  <g id="Regular-S" transform="matrix(1 0 0 1 1406.05 696)">
   <path class="SFSymbolsPreviewWireframe" d="M31.6406-42.334L55.957-42.334C59.7168-42.334 61.8652-44.3848 61.8652-48.1445L61.8652-74.707C61.8652-78.4668 59.7168-80.5664 55.957-80.5664L31.6406-80.5664C27.8809-80.5664 25.7324-78.4668 25.7324-74.707L25.7324-48.1445C25.7324-44.3848 27.8809-42.334 31.6406-42.334ZM25.6836-14.1113L61.9629-14.1113C69.7754-14.1113 74.9023-19.0918 74.9023-26.9043L74.9023-62.2559C74.9023-70.0195 69.7754-75.0488 61.9629-75.0488L25.6836-75.0488C17.8223-75.0488 12.7441-70.0195 12.7441-62.2559L12.7441-26.9043C12.7441-19.0918 17.8223-14.1113 25.6836-14.1113ZM25.5371-19.043L62.0605-19.043C67.0898-19.043 69.9219-21.8262 69.9219-26.8066L69.9219-62.3535C69.9219-67.2852 67.0898-70.0684 62.0605-70.0684L25.5371-70.0684C20.5078-70.0684 17.6758-67.2852 17.6758-62.3535L17.6758-26.8066C17.6758-21.8262 20.5078-19.043 25.5371-19.043ZM22.2168 16.0645L65.4297 16.0645C76.9531 16.0645 83.7891 9.375 83.7891-2.14844L83.7891-45.7031C83.7891-57.2266 76.9531-63.916 65.4297-63.916L22.2168-63.916C10.5957-63.916 3.80859-57.2266 3.80859-45.7031L3.80859-2.14844C3.80859 9.375 10.5957 16.0645 22.2168 16.0645ZM22.2168 10.1562L65.4297 10.1562C73.7305 10.1562 77.8809 6.05469 77.8809-2.14844L77.8809-45.7031C77.8809-53.9062 73.7305-57.959 65.4297-57.959L22.2168-57.959C13.8672-57.959 9.76562-53.9062 9.76562-45.7031L9.76562-2.14844C9.76562 6.05469 13.8672 10.1562 22.2168 10.1562ZM32.311-6.2188L55.2879-6.2188C59.8309-6.2188 62.2926-8.67726 62.2926-13.1818L62.2926-36.256C62.2926-40.7606 59.8309-43.219 55.2879-43.219L32.311-43.219C27.7819-43.219 25.3063-40.7573 25.3063-36.256L25.3063-13.1818C25.3063-8.68051 27.7819-6.2188 32.311-6.2188ZM43.9081-15.3585C42.021-15.3585 40.9844-16.6069 40.9844-18.6309L40.9844-29.6315L37.7306-29.6315C36.241-29.6315 35.3101-30.4706 35.3101-31.8527C35.3101-33.2732 36.241-34.1016 37.7306-34.1016L50.111-34.1016C51.5867-34.1016 52.5176-33.2732 52.5176-31.8527C52.5176-30.4706 51.5867-29.6315 50.111-29.6315L46.8596-29.6315L46.8596-18.6309C46.8596-16.5912 45.7952-15.3585 43.9081-15.3585Z"/>
  </g>
  <g id="Ultralight-S" transform="matrix(1 0 0 1 518.75 696)">
   <path class="SFSymbolsPreviewWireframe" d="M28.2349-38.565L53.6865-38.565C55.4029-38.565 56.5977-39.7984 56.5977-41.5147L56.5977-72.3911C56.5977-74.1075 55.4029-75.2989 53.6865-75.2989L28.2349-75.2989C26.5186-75.2989 25.2783-74.1075 25.2783-72.3911L25.2783-41.5147C25.2783-39.7984 26.5186-38.565 28.2349-38.565ZM23.1406-13.1123L58.7388-13.1123C65.2798-13.1123 69.9981-17.7749 69.9981-24.3613L69.9981-61.938C69.9981-68.4756 65.2798-73.187 58.7388-73.187L23.1406-73.187C16.5962-73.187 11.8814-68.4756 11.8814-61.938L11.8814-24.3613C11.8814-17.7749 16.5962-13.1123 23.1406-13.1123ZM21.314-19.3608L60.6074-19.3608C62.5035-19.3608 63.7461-20.5547 63.7461-22.4927L63.7461-63.8066C63.7461-65.6958 62.5035-66.8897 60.6074-66.8897L21.314-66.8897C19.3726-66.8897 18.1753-65.6958 18.1753-63.8066L18.1753-22.4927C18.1753-20.5547 19.3726-19.3608 21.314-19.3608ZM19.7193 12.1592L62.1602 12.1592C72.73 12.1592 79.4297 5.37894 79.4297-5.05466L79.4297-47.5195C79.4297-57.9531 72.73-64.7334 62.1602-64.7334L19.7193-64.7334C9.188-64.7334 2.49171-58.0439 2.49171-47.5195L2.49171-5.05466C2.49171 5.46976 9.188 12.1592 19.7193 12.1592ZM19.7193 4.88871L62.1602 4.88871C68.69 4.88871 72.1592 1.37748 72.1592-5.05466L72.1592-47.5195C72.1592-53.9517 68.69-57.5049 62.1602-57.5049L19.7193-57.5049C13.186-57.5049 9.76562-54.0425 9.76562-47.5195L9.76562-5.05466C9.76562 1.4683 13.186 4.88871 19.7193 4.88871ZM29.2499-9.63822L52.6722-9.63822C56.2714-9.63822 58.1208-11.5163 58.1208-15.0567L58.1208-38.5492C58.1208-42.0895 56.2714-43.9676 52.6722-43.9676L29.2499-43.9676C25.6608-43.9676 23.8014-42.1182 23.8014-38.5492L23.8014-15.0567C23.8014-11.4875 25.6608-9.63822 29.2499-9.63822ZM40.8741-18.0161C40.2347-18.0161 39.8546-18.4721 39.8546-19.1315L39.8546-33.8269L34.7729-33.8269C34.2537-33.8269 33.878-34.187 33.878-34.6917C33.878-35.2553 34.2537-35.5766 34.7729-35.5766L47.1493-35.5766C47.6584-35.5766 48.0342-35.2553 48.0342-34.6917C48.0342-34.187 47.6584-33.8269 47.1493-33.8269L41.9137-33.8269L41.9137-19.1315C41.9137-18.452 41.5379-18.0161 40.8741-18.0161Z"/>
  </g>
 </g>
 <g id="LayerTree">
  <g class="monochrome-0 multicolor-0:tintColor hierarchical-0:tertiary"/>
  <g class="monochrome-1 multicolor-1:tintColor hierarchical-1:primary"/>
  <g class="monochrome-2 multicolor-2:tintColor hierarchical-2:tertiary"/>
  <g class="monochrome-3 multicolor-3:tintColor hierarchical-3:primary"/>
  <g class="monochrome-4 multicolor-4:tintColor hierarchical-4:tertiary"/>
  <g class="monochrome-5 multicolor-5:white hierarchical-5:primary">
   <g class="shapeGroupLayer-0"/>
   <g class="shapeGroupLayer-1"/>
  </g>
 </g>
</svg>
